<svg width="422" height="318" viewBox="0 0 422 318" fill="none" xmlns="http://www.w3.org/2000/svg">
<rect y="58.9746" width="386" height="262" rx="16" transform="rotate(-8.7883 0 58.9746)" fill="white"/>
<path d="M61.0369 130.974C58.6387 131.345 56.541 130.954 54.7439 129.802C52.9427 128.623 51.8485 126.782 51.4615 124.279L55.0983 123.716C55.3183 125.14 55.9394 126.19 56.9618 126.869C58.0104 127.543 59.1804 127.78 60.4718 127.581C61.8158 127.373 62.8575 126.78 63.5968 125.803C64.3361 124.825 64.5672 123.44 64.2901 121.648L61.21 101.724L64.8468 101.162L67.988 121.481C68.4158 124.248 67.9582 126.437 66.6152 128.048C65.2682 129.632 63.4087 130.608 61.0369 130.974ZM83.418 127.433C80.44 127.894 77.81 127.288 75.5279 125.617C73.2681 123.916 71.9162 121.629 71.4721 118.757C71.028 115.884 71.6282 113.309 73.2728 111.031C74.9397 108.722 77.2621 107.338 80.2401 106.878C83.1917 106.421 85.7974 107.044 88.0572 108.745C90.3393 110.416 91.7024 112.688 92.1465 115.56C92.5906 118.433 91.9792 121.023 90.3123 123.332C88.6677 125.61 86.3696 126.977 83.418 127.433ZM77.6305 122.985C79.1337 124.156 80.8999 124.585 82.9291 124.271C84.9583 123.957 86.4995 123.017 87.5526 121.451C88.6057 119.885 88.9774 118.101 88.6678 116.098C88.3582 114.095 87.4649 112.506 85.9881 111.332C84.5113 110.157 82.7582 109.726 80.729 110.04C78.6998 110.354 77.1454 111.296 76.066 112.866C75.0129 114.431 74.6411 116.216 74.9508 118.219C75.2604 120.222 76.1536 121.811 77.6305 122.985ZM97.0265 98.5753C96.6478 99.0926 96.1158 99.4042 95.4306 99.5101C94.7454 99.6161 94.131 99.4817 93.5874 99.107C93.0397 98.706 92.7129 98.1629 92.607 97.4777C92.5051 96.8188 92.6547 96.2156 93.0557 95.6679C93.4567 95.1202 93.9999 94.7934 94.685 94.6874C95.3702 94.5815 95.9735 94.7311 96.4949 95.1362C97.0162 95.5413 97.3278 96.0733 97.4297 96.7321C97.5356 97.4173 97.4012 98.0317 97.0265 98.5753ZM97.5659 124.841L94.5102 105.076L97.9098 104.551L100.966 124.316L97.5659 124.841ZM106.422 123.472L103.366 103.707L106.766 103.181L107.236 106.225C108.226 103.725 110.144 102.254 112.99 101.814C115.23 101.468 117.147 101.914 118.742 103.151C120.336 104.389 121.321 106.22 121.696 108.645L123.578 120.82L120.218 121.339L118.415 109.678C118.158 108.018 117.535 106.778 116.545 105.96C115.551 105.115 114.342 104.803 112.919 105.023C111.285 105.275 110.015 106.133 109.107 107.595C108.227 109.054 107.959 110.903 108.306 113.143L109.821 122.947L106.422 123.472ZM144.302 117.818C142.483 118.099 140.941 117.812 139.675 116.955C138.41 116.098 137.624 114.682 137.318 112.705L135.65 101.913L131.46 102.561L130.977 99.4384L135.167 98.7906L134.318 93.2958L137.717 92.7703L138.567 98.265L144.259 97.385L144.742 100.508L139.05 101.388L140.651 111.745C140.842 112.983 141.24 113.812 141.845 114.232C142.449 114.651 143.318 114.773 144.451 114.598C145.453 114.443 146.236 114.187 146.802 113.83L147.272 116.873C146.372 117.336 145.382 117.651 144.302 117.818ZM154.069 116.106L150.669 116.632L146.086 86.9838L149.486 86.4582L151.484 99.3846C152.473 96.8841 154.391 95.4138 157.238 94.9738C159.478 94.6275 161.395 95.0731 162.989 96.3107C164.584 97.5483 165.568 99.3793 165.943 101.804L167.826 113.979L164.466 114.499L162.663 102.837C162.406 101.177 161.783 99.9376 160.793 99.1193C159.799 98.2746 158.59 97.9622 157.167 98.1822C155.533 98.4348 154.262 99.2923 153.355 100.755C152.474 102.213 152.207 104.062 152.553 106.302L154.069 116.106ZM181.44 112.279C178.568 112.723 176.032 112.117 173.833 110.46C171.661 108.799 170.346 106.493 169.89 103.541C169.429 100.563 169.96 97.9719 171.481 95.767C173.024 93.5316 175.311 92.1796 178.342 91.7111C181.399 91.2385 183.964 91.9482 186.037 93.8403C188.111 95.7324 189.284 98.2628 189.558 101.431L173.469 103.919C173.799 105.703 174.69 107.103 176.143 108.12C177.591 109.11 179.211 109.467 181.003 109.19C183.691 108.774 185.431 107.372 186.222 104.983L189.7 104.445C189.485 106.367 188.654 108.061 187.207 109.526C185.761 110.991 183.839 111.908 181.44 112.279ZM182.821 95.5518C181.594 94.7701 180.216 94.4974 178.687 94.7338C177.159 94.9701 175.86 95.6431 174.79 96.7529C173.747 97.8586 173.221 99.3431 173.212 101.206L185.546 99.2995C184.952 97.5564 184.044 96.3072 182.821 95.5518ZM210.453 107.591C208.635 107.873 207.093 107.585 205.827 106.728C204.561 105.871 203.776 104.455 203.47 102.478L201.802 91.6865L197.611 92.3343L197.129 89.2114L201.319 88.5636L200.469 83.0689L203.869 82.5433L204.718 88.038L210.411 87.158L210.894 90.2809L205.201 91.1609L206.802 101.518C206.994 102.756 207.392 103.585 207.996 104.005C208.601 104.424 209.47 104.546 210.603 104.371C211.604 104.216 212.388 103.96 212.953 103.603L213.424 106.646C212.524 107.109 211.534 107.424 210.453 107.591ZM216.821 106.405L213.765 86.6394L217.165 86.1138L217.758 89.9482C217.939 88.6789 218.5 87.5938 219.44 86.693C220.407 85.788 221.483 85.2439 222.669 85.0605C223.248 84.9709 223.77 84.9442 224.235 84.9803L224.779 88.4985C224.272 88.361 223.636 88.3514 222.872 88.4695C221.502 88.6814 220.381 89.4618 219.51 90.8106C218.639 92.1595 218.371 93.9145 218.705 96.0754L220.221 105.879L216.821 106.405ZM229.77 78.0533C229.391 78.5706 228.859 78.8822 228.174 78.9881C227.489 79.0941 226.874 78.9597 226.331 78.585C225.783 78.184 225.456 77.6409 225.35 76.9557C225.248 76.2968 225.398 75.6936 225.799 75.1459C226.2 74.5982 226.743 74.2714 227.428 74.1654C228.114 74.0595 228.717 74.2091 229.238 74.6142C229.76 75.0193 230.071 75.5513 230.173 76.2101C230.279 76.8953 230.145 77.5097 229.77 78.0533ZM230.309 104.319L227.254 84.5541L230.653 84.0285L233.709 103.794L230.309 104.319ZM249.583 101.744C248.134 101.968 246.727 101.862 245.365 101.425C244.024 100.958 242.934 100.276 242.094 99.3808L242.565 102.425L239.165 102.95L234.581 73.3024L237.981 72.7768L239.979 85.7033C240.51 84.5959 241.345 83.6302 242.486 82.8063C243.649 81.9519 244.956 81.4126 246.405 81.1885C249.146 80.7648 251.593 81.4118 253.748 83.1295C255.929 84.8431 257.239 87.123 257.679 89.9692C258.119 92.8153 257.558 95.3845 255.997 97.6766C254.462 99.9647 252.324 101.321 249.583 101.744ZM243.446 97.3909C244.923 98.5657 246.636 99.0024 248.586 98.7009C250.537 98.3994 252.038 97.4657 253.091 95.8997C254.144 94.3338 254.514 92.5362 254.2 90.507C253.887 88.4777 252.991 86.8757 251.515 85.7009C250.038 84.5261 248.324 84.0894 246.374 84.3909C244.424 84.6924 242.922 85.6261 241.869 87.192C240.816 88.758 240.446 90.5556 240.76 92.5848C241.074 94.614 241.969 96.2161 243.446 97.3909ZM271.557 98.3471C268.685 98.7912 266.149 98.1849 263.95 96.528C261.777 94.8671 260.463 92.5609 260.007 89.6093C259.546 86.6313 260.077 84.0399 261.598 81.835C263.141 79.5996 265.428 78.2476 268.458 77.7791C271.515 77.3065 274.081 78.0162 276.154 79.9083C278.228 81.8004 279.401 84.3308 279.675 87.4995L263.586 89.9868C263.916 91.7707 264.807 93.171 266.26 94.1877C267.708 95.1781 269.328 95.5347 271.12 95.2577C273.808 94.8421 275.548 93.4398 276.339 91.051L279.817 90.5132C279.602 92.4353 278.771 94.1288 277.324 95.5937C275.878 97.0586 273.955 97.9764 271.557 98.3471ZM272.938 81.6198C271.711 80.8381 270.333 80.5654 268.804 80.8018C267.276 81.0381 265.977 81.7111 264.907 82.8209C263.864 83.9266 263.338 85.4111 263.329 87.2743L275.662 85.3675C275.069 83.6244 274.161 82.3752 272.938 81.6198Z" fill="#050401"/>
<path d="M67.9275 167.207L68.1811 168.848L59.0891 170.253L58.9852 169.581C58.9099 169.094 58.911 168.621 58.9888 168.164C59.0776 167.692 59.1909 167.29 59.3285 166.958C59.4661 166.627 59.7041 166.246 60.0423 165.816C60.3785 165.372 60.6454 165.048 60.8429 164.842C61.0384 164.623 61.3712 164.288 61.8412 163.838C62.3092 163.374 62.6197 163.07 62.7727 162.925C63.6023 162.095 64.1593 161.422 64.4438 160.906C64.7394 160.374 64.8281 159.726 64.71 158.962C64.5959 158.224 64.2681 157.674 63.7265 157.313C63.1829 156.938 62.5289 156.81 61.7647 156.928C60.9609 157.052 60.3134 157.402 59.8221 157.977C59.3309 158.552 59.1525 159.275 59.287 160.144L57.5476 160.413C57.3439 159.096 57.6138 157.961 58.3571 157.01C59.1137 156.056 60.1574 155.477 61.4882 155.271C62.7268 155.079 63.8096 155.276 64.7366 155.862C65.6767 156.445 66.2487 157.395 66.4524 158.713C66.6072 159.714 66.4958 160.609 66.1183 161.395C65.7387 162.169 65.0222 163.076 63.9687 164.116C63.7691 164.309 63.4875 164.581 63.1239 164.934C62.7582 165.274 62.4766 165.547 62.279 165.753C62.0815 165.959 61.8637 166.209 61.6257 166.502C61.3989 166.78 61.2278 167.069 61.1124 167.37C61.0082 167.656 60.9476 167.963 60.9306 168.289L67.9275 167.207ZM76.6791 167.534L76.0893 163.719L68.6181 164.874L68.4072 163.511L74.727 153.467L76.2094 153.238L77.5416 161.856L79.4786 161.556L79.7261 163.157L77.7891 163.457L78.3789 167.271L76.6791 167.534ZM70.5843 162.931L75.8418 162.118L74.9068 156.07L70.5843 162.931ZM87.2482 166.102C85.7856 166.329 84.5177 166.025 83.4446 165.193C82.3694 164.347 81.7116 163.147 81.4713 161.592L80.8662 157.679C80.6259 156.124 80.8915 154.787 81.6631 153.67C82.4459 152.537 83.562 151.858 85.0114 151.634C86.4609 151.41 87.7298 151.72 88.8181 152.564C89.9064 153.407 90.5698 154.6 90.8081 156.142L91.4132 160.055C91.6535 161.61 91.3823 162.954 90.5996 164.087C89.8148 165.206 88.6976 165.878 87.2482 166.102ZM86.9915 164.442C87.9666 164.291 88.7073 163.846 89.2136 163.107C89.7199 162.368 89.8865 161.438 89.7133 160.318L89.1083 156.404C88.9352 155.284 88.4956 154.448 87.7897 153.896C87.0837 153.344 86.2432 153.144 85.2681 153.295C84.3062 153.443 83.5721 153.887 83.0658 154.627C82.5595 155.366 82.3929 156.296 82.566 157.416L83.1711 161.329C83.3442 162.449 83.7838 163.285 84.4897 163.837C85.1957 164.389 86.0296 164.591 86.9915 164.442ZM99.5628 164.199C98.1002 164.425 96.8323 164.121 95.7592 163.289C94.6841 162.443 94.0263 161.243 93.7859 159.688L93.1809 155.775C92.9405 154.22 93.2061 152.884 93.9777 151.766C94.7605 150.633 95.8766 149.955 97.3261 149.73C98.7755 149.506 100.044 149.816 101.133 150.66C102.221 151.503 102.884 152.696 103.123 154.238L103.728 158.151C103.968 159.706 103.697 161.05 102.914 162.183C102.129 163.303 101.012 163.974 99.5628 164.199ZM99.3062 162.538C100.281 162.388 101.022 161.942 101.528 161.203C102.035 160.464 102.201 159.534 102.028 158.414L101.423 154.5C101.25 153.38 100.81 152.544 100.104 151.993C99.3983 151.441 98.5578 151.24 97.5827 151.391C96.6208 151.539 95.8867 151.983 95.3804 152.723C94.8741 153.462 94.7075 154.392 94.8807 155.512L95.4857 159.425C95.6589 160.545 96.0984 161.381 96.8044 161.933C97.5103 162.485 98.3442 162.687 99.3062 162.538ZM105.684 157.97L105.449 156.448L108.868 155.92L108.343 152.52L109.884 152.282L110.41 155.681L113.809 155.156L114.045 156.678L110.645 157.203L111.171 160.603L109.629 160.841L109.103 157.442L105.684 157.97ZM122.281 150.365L124.011 161.552C124.163 162.54 124.003 163.334 123.529 163.934C123.055 164.533 122.377 164.901 121.494 165.038C121.191 165.085 120.917 165.107 120.674 165.104L120.439 163.582C120.654 163.576 120.847 163.559 121.018 163.533C122.033 163.376 122.453 162.737 122.28 161.617L120.581 150.628L122.281 150.365ZM121.84 147.378C121.65 147.636 121.384 147.792 121.042 147.845C120.699 147.898 120.392 147.831 120.12 147.643C119.846 147.443 119.683 147.171 119.63 146.829C119.579 146.499 119.654 146.198 119.854 145.924C120.055 145.65 120.326 145.487 120.669 145.434C121.011 145.381 121.313 145.455 121.574 145.658C121.834 145.861 121.99 146.127 122.041 146.456C122.094 146.799 122.027 147.106 121.84 147.378ZM131.446 159.269C129.957 159.5 128.642 159.197 127.501 158.362C126.371 157.511 125.695 156.367 125.473 154.931C125.251 153.495 125.551 152.207 126.373 151.068C127.207 149.914 128.368 149.222 129.857 148.992C131.333 148.763 132.636 149.075 133.766 149.925C134.907 150.761 135.588 151.897 135.81 153.333C136.032 154.769 135.727 156.064 134.893 157.219C134.071 158.358 132.922 159.041 131.446 159.269ZM128.552 157.045C129.304 157.631 130.187 157.845 131.201 157.688C132.216 157.531 132.987 157.061 133.513 156.278C134.04 155.496 134.226 154.603 134.071 153.602C133.916 152.6 133.469 151.806 132.731 151.219C131.993 150.631 131.116 150.416 130.101 150.573C129.087 150.73 128.31 151.201 127.77 151.986C127.243 152.769 127.057 153.661 127.212 154.662C127.367 155.664 127.814 156.458 128.552 157.045ZM138.744 144.764C138.555 145.023 138.289 145.179 137.946 145.231C137.604 145.284 137.297 145.217 137.025 145.03C136.751 144.829 136.588 144.558 136.535 144.215C136.484 143.886 136.558 143.584 136.759 143.31C136.959 143.036 137.231 142.873 137.574 142.82C137.916 142.767 138.218 142.842 138.478 143.045C138.739 143.247 138.895 143.513 138.946 143.842C138.999 144.185 138.932 144.492 138.744 144.764ZM139.014 157.897L137.486 148.014L139.186 147.752L140.714 157.634L139.014 157.897ZM143.936 157.136L142.408 147.254L144.108 146.991L144.343 148.513C144.838 147.262 145.797 146.527 147.22 146.307C148.34 146.134 149.299 146.357 150.096 146.976C150.893 147.594 151.386 148.51 151.573 149.722L152.514 155.81L150.834 156.07L149.933 150.239C149.804 149.409 149.493 148.789 148.998 148.38C148.501 147.958 147.896 147.801 147.185 147.911C146.368 148.038 145.733 148.467 145.279 149.198C144.838 149.927 144.705 150.852 144.878 151.972L145.636 156.873L143.936 157.136ZM159.816 154.884C158.379 155.106 157.111 154.802 156.012 153.974C154.926 153.144 154.268 151.99 154.04 150.515C153.81 149.026 154.075 147.73 154.836 146.627C155.607 145.51 156.751 144.834 158.266 144.6C159.795 144.363 161.077 144.718 162.114 145.664C163.151 146.61 163.738 147.875 163.875 149.46L155.83 150.703C155.995 151.595 156.441 152.295 157.167 152.804C157.891 153.299 158.701 153.477 159.597 153.339C160.941 153.131 161.811 152.43 162.206 151.235L163.946 150.967C163.838 151.928 163.422 152.774 162.699 153.507C161.976 154.239 161.015 154.698 159.816 154.884ZM160.506 146.52C159.892 146.129 159.203 145.993 158.439 146.111C157.675 146.229 157.025 146.566 156.491 147.12C155.969 147.673 155.706 148.415 155.701 149.347L161.868 148.394C161.572 147.522 161.117 146.898 160.506 146.52ZM171.123 153.135C169.753 153.347 168.523 153.025 167.432 152.168C166.355 151.309 165.706 150.168 165.486 148.745C165.266 147.322 165.54 146.038 166.308 144.894C167.088 143.748 168.164 143.069 169.534 142.857C170.259 142.745 170.957 142.806 171.627 143.04C172.308 143.258 172.859 143.591 173.279 144.039L172.28 137.576L173.979 137.313L176.271 152.137L174.571 152.4L174.336 150.878C174.071 151.432 173.648 151.922 173.066 152.349C172.496 152.761 171.848 153.023 171.123 153.135ZM171.139 151.534C172.114 151.383 172.865 150.917 173.391 150.134C173.918 149.351 174.103 148.452 173.946 147.437C173.789 146.423 173.341 145.622 172.603 145.034C171.865 144.447 171.008 144.228 170.033 144.379C169.044 144.532 168.287 145 167.76 145.783C167.234 146.566 167.049 147.465 167.206 148.479C167.363 149.494 167.81 150.295 168.549 150.882C169.287 151.47 170.151 151.687 171.139 151.534Z" fill="#FF1414"/>
<rect x="62.1426" y="199.126" width="306" height="74" rx="16" transform="rotate(-8.7883 62.1426 199.126)" fill="#FF1414"/>
<path d="M164.447 229.856L158.942 220.168L156.62 231.066L154.058 231.462L147.114 215.293L150.032 214.842L154.983 226.608L157.886 213.337L164.637 225.116L165.828 212.4L168.769 211.946L167.008 229.46L164.447 229.856ZM177.693 228.051C176.08 228.301 174.627 227.91 173.334 226.879C172.057 225.846 171.287 224.476 171.023 222.768C170.759 221.061 171.08 219.522 171.985 218.151C172.906 216.778 174.173 215.967 175.786 215.718C176.592 215.593 177.363 215.66 178.1 215.919C178.833 216.161 179.421 216.508 179.863 216.958L179.617 215.368L182.226 214.965L184.06 226.824L181.451 227.227L181.205 225.638C180.92 226.201 180.465 226.716 179.841 227.185C179.215 227.638 178.499 227.927 177.693 228.051ZM175.094 224.908C175.87 225.532 176.772 225.765 177.8 225.606C178.828 225.447 179.618 224.953 180.169 224.123C180.721 223.293 180.914 222.34 180.748 221.265C180.581 220.19 180.11 219.34 179.333 218.715C178.557 218.09 177.655 217.857 176.627 218.016C175.599 218.175 174.809 218.67 174.258 219.5C173.706 220.33 173.513 221.282 173.68 222.358C173.846 223.433 174.317 224.283 175.094 224.908ZM186.666 211.632C186.191 211.705 185.755 211.602 185.355 211.324C184.954 211.03 184.715 210.638 184.639 210.148C184.566 209.673 184.678 209.243 184.974 208.858C185.268 208.456 185.652 208.218 186.127 208.145C186.617 208.069 187.055 208.18 187.441 208.476C187.824 208.757 188.053 209.134 188.126 209.609C188.202 210.099 188.1 210.544 187.822 210.943C187.541 211.326 187.156 211.556 186.666 211.632ZM187.594 226.278L185.761 214.419L188.37 214.015L190.203 225.874L187.594 226.278ZM198.874 224.655C197.673 224.841 196.641 224.661 195.779 224.114C194.931 223.549 194.408 222.626 194.21 221.345L193.326 215.629L190.859 216.01L190.5 213.686L192.967 213.305L192.457 210.008L195.066 209.604L195.576 212.901L198.968 212.377L199.327 214.701L195.935 215.226L196.753 220.515C196.865 221.242 197.104 221.739 197.469 222.007C197.832 222.258 198.361 222.33 199.057 222.223C199.626 222.135 200.08 221.984 200.42 221.769L200.779 224.094C200.237 224.356 199.602 224.543 198.874 224.655ZM203.275 223.853L200.525 206.065L203.134 205.661L205.884 223.45L203.275 223.853ZM208.462 208.262C207.987 208.335 207.55 208.233 207.151 207.955C206.75 207.661 206.511 207.268 206.435 206.778C206.362 206.304 206.473 205.874 206.77 205.488C207.064 205.086 207.448 204.849 207.922 204.775C208.413 204.7 208.851 204.81 209.237 205.107C209.62 205.387 209.848 205.765 209.922 206.239C209.997 206.729 209.896 207.174 209.618 207.573C209.337 207.957 208.952 208.186 208.462 208.262ZM209.39 222.908L207.557 211.049L210.166 210.646L211.999 222.505L209.39 222.908ZM219.716 221.555C218.309 221.772 217.069 221.608 215.997 221.061C214.941 220.512 214.29 219.657 214.046 218.497L216.75 218.079C217.121 219.22 218.026 219.679 219.465 219.456C220.05 219.366 220.5 219.191 220.816 218.932C221.13 218.657 221.255 218.313 221.191 217.902C221.128 217.491 220.943 217.188 220.638 216.992C220.332 216.797 219.851 216.669 219.194 216.608L217.169 216.387C215.062 216.162 213.865 215.125 213.579 213.275C213.425 212.279 213.705 211.418 214.418 210.692C215.129 209.951 216.149 209.478 217.477 209.272C218.758 209.074 219.86 209.236 220.782 209.757C221.705 210.278 222.296 211.069 222.557 212.13L219.948 212.533C219.544 211.592 218.82 211.202 217.776 211.363C217.254 211.444 216.852 211.619 216.57 211.89C216.286 212.144 216.173 212.461 216.232 212.841C216.337 213.521 216.94 213.913 218.041 214.018L220.114 214.232C222.3 214.444 223.536 215.476 223.822 217.326C223.996 218.448 223.695 219.385 222.921 220.136C222.16 220.869 221.092 221.342 219.716 221.555ZM231.904 219.549C230.702 219.735 229.67 219.554 228.809 219.007C227.961 218.442 227.437 217.52 227.239 216.239L226.356 210.523L223.889 210.904L223.53 208.58L225.996 208.198L225.487 204.901L228.096 204.498L228.605 207.795L231.997 207.271L232.356 209.595L228.965 210.119L229.782 215.408C229.895 216.136 230.134 216.633 230.499 216.901C230.861 217.152 231.391 217.224 232.086 217.116C232.656 217.028 233.11 216.877 233.449 216.663L233.808 218.987C233.266 219.249 232.631 219.436 231.904 219.549ZM256.877 215.567L254.458 215.941L243.096 205.287L244.97 217.407L242.195 217.836L239.592 200.997L242.011 200.623L253.345 211.256L251.475 199.159L254.273 198.727L256.877 215.567ZM269.997 211.96C268.994 213.329 267.615 214.149 265.86 214.421C264.105 214.692 262.535 214.328 261.15 213.328C259.778 212.309 258.959 210.938 258.692 209.215C258.426 207.491 258.794 205.945 259.797 204.576C260.813 203.188 262.198 202.359 263.953 202.087C265.708 201.816 267.272 202.189 268.644 203.208C270.029 204.208 270.854 205.57 271.121 207.293C271.387 209.017 271.013 210.572 269.997 211.96ZM265.486 212.001C266.514 211.843 267.305 211.356 267.859 210.542C268.426 209.709 268.628 208.763 268.464 207.704C268.301 206.645 267.824 205.812 267.034 205.205C266.257 204.581 265.355 204.348 264.327 204.507C263.284 204.668 262.478 205.165 261.911 205.997C261.357 206.811 261.161 207.748 261.325 208.808C261.489 209.867 261.959 210.709 262.736 211.334C263.526 211.94 264.442 212.163 265.486 212.001ZM284.673 211.269L280.879 204.012L279.479 212.072L277.012 212.454L271.194 201.211L273.945 200.785L277.772 208.572L279.234 199.968L281.227 199.66L285.172 207.428L286.516 198.842L289.291 198.413L287.14 210.888L284.673 211.269Z" fill="white"/>
</svg>
