<svg width="363" height="303" viewBox="0 0 363 303" fill="none" xmlns="http://www.w3.org/2000/svg">
<rect y="42.3262" width="331.404" height="262" rx="16" transform="rotate(-7.33768 0 42.3262)" fill="white"/>
<path d="M66.3756 114.923C62.2232 115.458 58.5665 114.517 55.4054 112.101C52.2673 109.655 50.4326 106.369 49.9013 102.243C49.37 98.1174 50.3141 94.4871 52.7335 91.3524C55.176 88.1879 58.4735 86.3383 62.6258 85.8036C65.7996 85.3949 68.7138 85.8935 71.3685 87.2993C74.0197 88.6786 75.9268 90.5437 77.0899 92.8944L73.0036 93.4206C72.0059 91.9358 70.6241 90.8098 68.8582 90.0423C67.0924 89.2749 65.1648 89.0257 63.0754 89.2948C59.9545 89.6966 57.4873 91.1033 55.6737 93.5146C53.8832 95.8962 53.1889 98.6474 53.5908 101.768C53.9927 104.889 55.3631 107.388 57.7019 109.265C60.0638 111.111 62.8052 111.834 65.926 111.432C68.8089 111.061 71.0602 109.857 72.68 107.82C74.3263 105.78 75.0994 103.327 74.9995 100.463L64.526 101.812L64.0815 98.3605L78.3636 96.5214C79.3741 101.446 78.6999 105.606 76.341 109.002C73.982 112.398 70.6602 114.371 66.3756 114.923ZM93.0017 111.414C90.1188 111.785 87.5993 111.115 85.443 109.403C83.3131 107.687 82.0575 105.349 81.676 102.386C81.2911 99.3977 81.8869 96.8205 83.4632 94.6548C85.0625 92.4592 87.383 91.1656 90.4245 90.7739C93.4925 90.3789 96.039 91.1533 98.0638 93.0973C100.089 95.0413 101.198 97.6006 101.392 100.775L85.245 102.854C85.5295 104.646 86.3848 106.068 87.811 107.122C89.2338 108.148 90.8444 108.546 92.6429 108.314C95.3406 107.967 97.1151 106.609 97.9663 104.241L101.457 103.791C101.193 105.708 100.32 107.379 98.8366 108.807C97.3535 110.235 95.4085 111.104 93.0017 111.414ZM94.8053 94.7268C93.5983 93.9143 92.2278 93.6068 90.6938 93.8044C89.1598 94.0019 87.8441 94.6418 86.7467 95.7242C85.6757 96.8032 85.1122 98.2738 85.0563 100.136L97.4341 98.5423C96.8851 96.7847 96.0089 95.5129 94.8053 94.7268ZM113.934 108.517C112.109 108.752 110.575 108.425 109.331 107.537C108.087 106.648 107.338 105.212 107.082 103.228L105.688 92.3979L101.482 92.9394L101.079 89.8053L105.284 89.2638L104.574 83.7493L107.986 83.31L108.696 88.8244L114.409 88.0888L114.812 91.2229L109.099 91.9585L110.438 102.353C110.598 103.596 110.975 104.435 111.568 104.869C112.162 105.303 113.028 105.447 114.165 105.301C115.17 105.171 115.96 104.935 116.534 104.593L116.927 107.647C116.016 108.087 115.018 108.377 113.934 108.517ZM136.615 105.798C134.076 106.125 131.779 105.614 129.723 104.265C127.667 102.917 126.473 101.162 126.141 98.9997L129.632 98.5501C130.127 99.8846 130.972 100.918 132.169 101.652C133.366 102.385 134.705 102.656 136.186 102.465C137.905 102.244 139.272 101.476 140.285 100.163C141.299 98.8492 141.697 97.346 141.479 95.6533C141.258 93.9342 140.517 92.5643 139.256 91.5436C137.996 90.5229 136.506 90.1233 134.786 90.3447C132.433 90.6478 130.783 91.8281 129.838 93.8856L126.462 93.3524L127.422 77.9436L140.594 76.2475L141.023 79.58L130.589 80.9236L130.079 89.1764C131.328 88.0207 132.905 87.3202 134.809 87.075C137.427 86.7378 139.689 87.3876 141.594 89.0245C143.521 90.6314 144.666 92.8367 145.027 95.6402C145.347 98.1263 144.707 100.36 143.107 102.34C141.503 104.294 139.339 105.447 136.615 105.798ZM159.097 102.903C156.161 103.281 153.642 102.61 151.538 100.892C149.431 99.1463 148.177 96.7133 147.775 93.5924L146.764 85.7372C146.362 82.6163 146.96 79.9581 148.56 77.7625C150.182 75.5371 152.448 74.2371 155.357 73.8624C158.267 73.4878 160.788 74.1714 162.921 75.9132C165.054 77.655 166.32 80.0731 166.719 83.1676L167.73 91.0227C168.132 94.1436 167.522 96.8168 165.9 99.0422C164.274 101.241 162.006 102.528 159.097 102.903ZM158.668 99.5702C160.625 99.3181 162.128 98.4658 163.178 97.0132C164.228 95.5605 164.608 93.7102 164.319 91.4621L163.307 83.6069C163.018 81.3588 162.181 79.6651 160.798 78.5258C159.414 77.3865 157.744 76.9429 155.786 77.1949C153.856 77.4435 152.366 78.2942 151.316 79.7468C150.266 81.1994 149.886 83.0498 150.175 85.2979L151.187 93.153C151.476 95.4011 152.313 97.0948 153.696 98.2341C155.08 99.3734 156.737 99.8188 158.668 99.5702ZM183.01 99.42L179.32 99.8952L193.546 69.4288L197.235 68.9537L183.01 99.42ZM200.705 97.4641C198.536 97.7433 196.586 97.2147 194.854 95.8783C193.149 94.5384 192.159 92.7973 191.883 90.655C191.604 88.4862 192.121 86.551 193.434 84.8493C194.771 83.1178 196.523 82.1124 198.692 81.8331C200.834 81.5573 202.771 82.0876 204.503 83.424C206.231 84.734 207.235 86.4734 207.514 88.6422C207.79 90.7845 207.26 92.7214 205.923 94.453C204.587 96.1845 202.847 97.1882 200.705 97.4641ZM200.306 94.3696C201.576 94.2061 202.614 93.602 203.42 92.5571C204.224 91.4857 204.543 90.3153 204.38 89.0458C204.216 87.7763 203.612 86.7383 202.567 85.9318C201.519 85.0988 200.36 84.7641 199.091 84.9276C197.768 85.0979 196.717 85.7038 195.937 86.7452C195.157 87.7867 194.85 88.9555 195.017 90.2514C195.184 91.5474 195.777 92.6003 196.795 93.4102C197.814 94.2201 198.984 94.5399 200.306 94.3696ZM177.863 87.0157C175.695 87.295 173.745 86.7664 172.013 85.43C170.308 84.0901 169.317 82.349 169.042 80.2067C168.762 78.0379 169.279 76.1027 170.593 74.401C171.929 72.6695 173.682 71.6641 175.851 71.3848C177.993 71.1089 179.93 71.6392 181.661 72.9757C183.39 74.2857 184.393 76.0251 184.672 78.1939C184.948 80.3362 184.418 82.2731 183.082 84.0046C181.745 85.7362 180.006 86.7399 177.863 87.0157ZM177.465 83.9213C178.734 83.7578 179.772 83.1536 180.579 82.1087C181.382 81.0374 181.702 79.867 181.538 78.5974C181.375 77.3279 180.771 76.2899 179.726 75.4834C178.678 74.6505 177.519 74.3158 176.249 74.4793C174.927 74.6495 173.875 75.2554 173.095 76.2969C172.315 77.3384 172.009 78.5071 172.176 79.8031C172.343 81.0991 172.935 82.152 173.954 82.9619C174.972 83.7718 176.143 84.0916 177.465 83.9213Z" fill="#050401"/>
<path d="M57.8477 154.859L56.2513 142.461L53.5337 142.811L54.7051 140.947L57.7401 140.556L59.5536 154.639L57.8477 154.859ZM69.2574 153.39L68.7644 149.561L61.2663 150.527L61.0901 149.158L67.662 139.278L69.1498 139.086L70.2634 147.735L72.2074 147.485L72.4143 149.091L70.4703 149.342L70.9633 153.17L69.2574 153.39ZM63.2811 148.634L68.5575 147.955L67.7759 141.885L63.2811 148.634ZM79.8594 152.226C78.3915 152.415 77.1317 152.08 76.08 151.221C75.0266 150.348 74.3994 149.132 74.1985 147.571L73.6927 143.644C73.4918 142.083 73.7912 140.754 74.5908 139.656C75.402 138.544 76.535 137.894 77.9896 137.706C79.4443 137.519 80.7049 137.861 81.7715 138.732C82.8382 139.602 83.4711 140.812 83.6703 142.359L84.1761 146.286C84.377 147.847 84.0719 149.183 83.2607 150.296C82.4478 151.396 81.314 152.039 79.8594 152.226ZM79.6448 150.56C80.6234 150.434 81.3751 150.008 81.9 149.282C82.4249 148.555 82.6149 147.63 82.4702 146.506L81.9644 142.578C81.8197 141.454 81.4014 140.608 80.7097 140.038C80.0179 139.468 79.1828 139.246 78.2042 139.372C77.2388 139.497 76.4937 139.922 75.9688 140.648C75.444 141.375 75.2539 142.3 75.3986 143.424L75.9044 147.351C76.0491 148.476 76.4674 149.322 77.1591 149.892C77.8509 150.462 78.6795 150.684 79.6448 150.56ZM92.2183 150.635C90.7504 150.824 89.4906 150.489 88.4389 149.629C87.3855 148.757 86.7583 147.54 86.5574 145.98L86.0516 142.052C85.8507 140.492 86.15 139.163 86.9497 138.065C87.7609 136.952 88.8938 136.302 90.3485 136.115C91.8032 135.927 93.0638 136.269 94.1304 137.14C95.1971 138.011 95.83 139.22 96.0292 140.767L96.535 144.695C96.7359 146.255 96.4308 147.592 95.6196 148.705C94.8067 149.804 93.6729 150.448 92.2183 150.635ZM92.0037 148.969C92.9823 148.843 93.734 148.416 94.2589 147.69C94.7838 146.964 94.9738 146.039 94.8291 144.915L94.3233 140.987C94.1786 139.863 93.7603 139.016 93.0686 138.446C92.3768 137.877 91.5417 137.655 90.5631 137.781C89.5977 137.905 88.8526 138.331 88.3277 139.057C87.8029 139.783 87.6128 140.708 87.7575 141.832L88.2633 145.76C88.408 146.884 88.8263 147.731 89.518 148.301C90.2098 148.87 91.0384 149.093 92.0037 148.969ZM98.4952 144.563L98.2985 143.036L101.73 142.594L101.291 139.182L102.838 138.983L103.277 142.395L106.689 141.956L106.886 143.483L103.474 143.922L103.913 147.334L102.366 147.533L101.927 144.122L98.4952 144.563ZM115.28 137.381L116.725 148.608C116.853 149.6 116.672 150.39 116.183 150.977C115.694 151.564 115.007 151.915 114.121 152.029C113.817 152.068 113.543 152.083 113.3 152.074L113.103 150.547C113.318 150.546 113.512 150.534 113.684 150.512C114.702 150.381 115.139 149.754 114.994 148.63L113.574 137.601L115.28 137.381ZM114.914 134.383C114.718 134.637 114.448 134.786 114.104 134.83C113.76 134.874 113.455 134.8 113.188 134.605C112.919 134.398 112.763 134.122 112.718 133.779C112.676 133.448 112.758 133.148 112.966 132.88C113.173 132.611 113.449 132.454 113.793 132.41C114.136 132.366 114.436 132.448 114.691 132.657C114.947 132.866 115.096 133.136 115.139 133.467C115.183 133.811 115.108 134.116 114.914 134.383ZM124.216 146.514C122.722 146.707 121.415 146.371 120.295 145.507C119.187 144.628 118.54 143.468 118.355 142.026C118.169 140.585 118.502 139.305 119.353 138.187C120.215 137.055 121.393 136.392 122.888 136.2C124.369 136.009 125.663 136.353 126.771 137.232C127.891 138.096 128.543 139.249 128.729 140.69C128.915 142.132 128.576 143.419 127.714 144.552C126.863 145.669 125.697 146.324 124.216 146.514ZM121.379 144.218C122.116 144.822 122.993 145.059 124.012 144.928C125.03 144.796 125.812 144.346 126.358 143.577C126.905 142.807 127.113 141.92 126.983 140.915C126.854 139.91 126.428 139.105 125.704 138.499C124.981 137.893 124.11 137.655 123.092 137.787C122.074 137.918 121.285 138.369 120.726 139.14C120.179 139.909 119.971 140.796 120.1 141.801C120.23 142.807 120.656 143.612 121.379 144.218ZM131.879 132.198C131.683 132.452 131.414 132.601 131.07 132.646C130.726 132.69 130.42 132.615 130.153 132.421C129.885 132.213 129.728 131.938 129.684 131.594C129.641 131.263 129.724 130.964 129.931 130.695C130.139 130.426 130.414 130.27 130.758 130.226C131.102 130.181 131.402 130.264 131.657 130.473C131.912 130.682 132.061 130.952 132.104 131.282C132.148 131.626 132.073 131.931 131.879 132.198ZM131.816 145.334L130.539 135.416L132.245 135.196L133.522 145.114L131.816 145.334ZM136.756 144.698L135.479 134.78L137.185 134.56L137.381 136.088C137.908 134.85 138.885 134.14 140.313 133.956C141.437 133.811 142.39 134.058 143.171 134.697C143.953 135.336 144.422 136.263 144.578 137.48L145.365 143.589L143.679 143.807L142.925 137.955C142.818 137.122 142.522 136.494 142.038 136.073C141.552 135.638 140.951 135.467 140.237 135.559C139.417 135.664 138.771 136.077 138.299 136.796C137.841 137.514 137.684 138.435 137.828 139.559L138.462 144.478L136.756 144.698ZM152.688 142.848C151.246 143.034 149.986 142.699 148.908 141.843C147.843 140.985 147.215 139.815 147.025 138.334C146.832 136.84 147.13 135.551 147.918 134.469C148.718 133.371 149.878 132.724 151.399 132.528C152.933 132.331 154.206 132.718 155.219 133.69C156.231 134.662 156.786 135.941 156.883 137.529L148.809 138.568C148.951 139.464 149.379 140.175 150.092 140.702C150.804 141.215 151.609 141.414 152.508 141.298C153.857 141.125 154.744 140.446 155.17 139.262L156.915 139.037C156.783 139.995 156.347 140.831 155.605 141.545C154.863 142.259 153.891 142.693 152.688 142.848ZM153.589 134.505C152.986 134.098 152.301 133.945 151.534 134.043C150.767 134.142 150.109 134.462 149.56 135.003C149.025 135.543 148.743 136.278 148.715 137.209L154.904 136.412C154.629 135.534 154.191 134.898 153.589 134.505ZM164.036 141.387C162.661 141.564 161.439 141.21 160.37 140.326C159.315 139.44 158.696 138.283 158.512 136.855C158.328 135.427 158.634 134.151 159.43 133.026C160.24 131.901 161.332 131.249 162.708 131.072C163.435 130.978 164.131 131.057 164.795 131.307C165.47 131.543 166.013 131.89 166.421 132.348L165.586 125.862L167.292 125.642L169.207 140.519L167.502 140.739L167.305 139.211C167.026 139.758 166.59 140.238 165.998 140.65C165.417 141.048 164.763 141.293 164.036 141.387ZM164.092 139.787C165.071 139.66 165.833 139.213 166.379 138.443C166.925 137.674 167.133 136.78 167.002 135.762C166.871 134.744 166.443 133.932 165.72 133.326C164.997 132.72 164.146 132.48 163.167 132.606C162.176 132.734 161.406 133.182 160.86 133.951C160.314 134.721 160.107 135.615 160.238 136.633C160.369 137.651 160.796 138.463 161.519 139.069C162.243 139.675 163.1 139.914 164.092 139.787Z" fill="#FF1414"/>
<rect x="58.5747" y="184.006" width="251.404" height="74" rx="16" transform="rotate(-7.33768 58.5747 184.006)" fill="#0066FF"/>
<path d="M126.23 221.674L124.054 204.773L126.839 204.414L128.672 218.649L136.408 217.653L136.751 220.319L126.23 221.674ZM143.95 219.634C142.173 219.862 140.638 219.471 139.347 218.46C138.053 217.433 137.29 216.023 137.06 214.229C136.829 212.436 137.202 210.888 138.179 209.584C139.155 208.265 140.555 207.488 142.38 207.253C144.221 207.016 145.787 207.467 147.08 208.608C148.37 209.732 149.08 211.302 149.211 213.318L139.737 214.538C139.887 215.454 140.335 216.179 141.082 216.712C141.828 217.245 142.717 217.445 143.748 217.312C145.208 217.124 146.136 216.44 146.533 215.26L149.27 214.907C149.054 216.113 148.479 217.155 147.543 218.034C146.608 218.912 145.41 219.446 143.95 219.634ZM142.591 209.452C141.734 209.562 141.028 209.903 140.472 210.475C139.93 211.029 139.629 211.761 139.569 212.672L146.163 211.823C145.854 210.927 145.376 210.287 144.73 209.902C144.081 209.502 143.368 209.352 142.591 209.452ZM157.555 217.761C156.348 217.916 155.322 217.71 154.474 217.141C153.64 216.555 153.141 215.619 152.975 214.334L152.237 208.597L149.761 208.916L149.461 206.583L151.936 206.264L151.51 202.955L154.129 202.618L154.555 205.927L157.958 205.489L158.259 207.821L154.855 208.26L155.539 213.568C155.633 214.298 155.859 214.801 156.217 215.078C156.573 215.338 157.1 215.424 157.799 215.334C158.37 215.26 158.828 215.121 159.172 214.915L159.473 217.248C158.924 217.496 158.285 217.667 157.555 217.761ZM166.194 216.769C164.782 216.951 163.547 216.755 162.489 216.182C161.447 215.606 160.819 214.735 160.604 213.569L163.317 213.22C163.659 214.369 164.552 214.851 165.996 214.665C166.583 214.59 167.038 214.426 167.361 214.175C167.681 213.908 167.815 213.568 167.762 213.155C167.709 212.743 167.532 212.435 167.231 212.232C166.931 212.028 166.453 211.888 165.798 211.811L163.779 211.539C161.678 211.261 160.508 210.194 160.269 208.337C160.14 207.337 160.442 206.484 161.173 205.776C161.903 205.053 162.934 204.606 164.267 204.434C165.553 204.269 166.65 204.458 167.559 205.003C168.468 205.547 169.039 206.353 169.273 207.419L166.655 207.757C166.274 206.805 165.56 206.397 164.513 206.532C163.989 206.6 163.583 206.765 163.294 207.028C163.004 207.275 162.883 207.589 162.932 207.97C163.02 208.652 163.613 209.06 164.711 209.193L166.777 209.459C168.958 209.727 170.167 210.789 170.406 212.646C170.551 213.772 170.227 214.701 169.434 215.432C168.655 216.146 167.575 216.591 166.194 216.769ZM187.189 214.114C184.666 214.439 182.456 213.877 180.559 212.427C178.661 210.961 177.552 208.991 177.233 206.515C176.914 204.04 177.481 201.862 178.932 199.981C180.398 198.082 182.392 196.97 184.916 196.645C186.772 196.406 188.495 196.693 190.084 197.504C191.672 198.316 192.842 199.448 193.594 200.9L190.428 201.308C189.884 200.587 189.144 200.045 188.21 199.681C187.292 199.316 186.309 199.2 185.262 199.335C183.516 199.56 182.155 200.324 181.177 201.628C180.2 202.931 179.821 204.44 180.042 206.154C180.263 207.868 181.011 209.231 182.287 210.244C183.563 211.258 185.081 211.651 186.843 211.424C188.382 211.226 189.586 210.619 190.456 209.604C191.325 208.589 191.761 207.339 191.764 205.854L185.979 206.599L185.642 203.981L194.283 202.868C194.989 205.971 194.634 208.542 193.219 210.579C191.818 212.599 189.808 213.777 187.189 214.114ZM207.985 209.573C206.948 210.916 205.549 211.702 203.787 211.928C202.026 212.155 200.465 211.751 199.106 210.716C197.76 209.663 196.976 208.272 196.754 206.543C196.531 204.813 196.938 203.276 197.975 201.933C199.026 200.571 200.432 199.777 202.193 199.551C203.955 199.324 205.508 199.737 206.854 200.789C208.213 201.824 209.004 203.207 209.227 204.936C209.449 206.666 209.035 208.212 207.985 209.573ZM203.474 209.5C204.506 209.368 205.309 208.901 205.883 208.101C206.472 207.283 206.698 206.343 206.561 205.28C206.424 204.216 205.968 203.372 205.194 202.745C204.433 202.101 203.537 201.846 202.506 201.978C201.458 202.113 200.641 202.59 200.052 203.408C199.478 204.207 199.259 205.139 199.396 206.202C199.533 207.266 199.981 208.119 200.742 208.763C201.516 209.39 202.427 209.635 203.474 209.5ZM222.234 207.738C221.197 209.081 219.798 209.867 218.037 210.093C216.275 210.32 214.715 209.916 213.355 208.881C212.01 207.829 211.226 206.437 211.003 204.708C210.78 202.978 211.187 201.441 212.224 200.098C213.275 198.737 214.681 197.942 216.443 197.716C218.204 197.489 219.758 197.902 221.103 198.955C222.462 199.989 223.253 201.372 223.476 203.101C223.699 204.831 223.285 206.377 222.234 207.738ZM217.724 207.665C218.755 207.533 219.558 207.066 220.133 206.266C220.721 205.448 220.947 204.508 220.81 203.445C220.673 202.382 220.218 201.537 219.443 200.911C218.683 200.266 217.787 200.011 216.755 200.144C215.708 200.278 214.89 200.755 214.302 201.573C213.727 202.373 213.508 203.304 213.645 204.367C213.782 205.431 214.231 206.284 214.991 206.928C215.766 207.555 216.677 207.8 217.724 207.665ZM236.484 205.903C235.447 207.247 234.048 208.032 232.286 208.258C230.525 208.485 228.964 208.081 227.605 207.046C226.26 205.994 225.475 204.602 225.253 202.873C225.03 201.143 225.437 199.606 226.474 198.263C227.525 196.902 228.931 196.108 230.692 195.881C232.454 195.654 234.007 196.067 235.353 197.12C236.712 198.154 237.503 199.537 237.726 201.266C237.948 202.996 237.534 204.542 236.484 205.903ZM231.973 205.831C233.005 205.698 233.808 205.231 234.383 204.431C234.971 203.614 235.197 202.673 235.06 201.61C234.923 200.547 234.467 199.702 233.693 199.076C232.932 198.431 232.036 198.176 231.005 198.309C229.958 198.443 229.14 198.92 228.551 199.738C227.977 200.538 227.758 201.469 227.895 202.532C228.032 203.596 228.48 204.449 229.241 205.093C230.015 205.72 230.926 205.965 231.973 205.831ZM250.733 204.068C249.696 205.412 248.297 206.197 246.536 206.424C244.774 206.65 243.214 206.246 241.855 205.211C240.509 204.159 239.725 202.767 239.502 201.038C239.279 199.308 239.687 197.771 240.723 196.428C241.774 195.067 243.18 194.273 244.942 194.046C246.703 193.819 248.257 194.232 249.602 195.285C250.961 196.32 251.752 197.702 251.975 199.432C252.198 201.161 251.784 202.707 250.733 204.068ZM246.223 203.996C247.254 203.863 248.057 203.396 248.632 202.596C249.22 201.779 249.446 200.838 249.309 199.775C249.172 198.712 248.717 197.867 247.942 197.241C247.182 196.597 246.286 196.341 245.254 196.474C244.207 196.609 243.389 197.085 242.801 197.903C242.226 198.703 242.007 199.634 242.144 200.697C242.281 201.761 242.73 202.614 243.49 203.259C244.265 203.885 245.176 204.13 246.223 203.996Z" fill="white"/>
</svg>
