<svg width="422" height="318" viewBox="0 0 422 318" fill="none" xmlns="http://www.w3.org/2000/svg">
<rect y="59" width="386" height="262" rx="16" transform="rotate(-8.7883 0 59)" fill="white"/>
<path d="M61.0369 131C58.6387 131.371 56.541 130.98 54.7439 129.827C52.9427 128.649 51.8485 126.808 51.4615 124.304L55.0983 123.742C55.3183 125.165 55.9394 126.216 56.9618 126.894C58.0104 127.569 59.1804 127.806 60.4718 127.606C61.8158 127.398 62.8575 126.806 63.5968 125.828C64.3361 124.85 64.5672 123.465 64.2901 121.673L61.21 101.75L64.8468 101.188L67.988 121.506C68.4158 124.273 67.9582 126.462 66.6152 128.073C65.2682 129.658 63.4087 130.633 61.0369 131ZM83.418 127.459C80.44 127.919 77.81 127.314 75.5279 125.643C73.2681 123.941 71.9162 121.655 71.4721 118.782C71.028 115.909 71.6282 113.334 73.2728 111.056C74.9397 108.748 77.2621 107.363 80.2401 106.903C83.1917 106.447 85.7974 107.069 88.0572 108.77C90.3393 110.441 91.7024 112.713 92.1465 115.586C92.5906 118.458 91.9792 121.049 90.3123 123.357C88.6677 125.635 86.3696 127.002 83.418 127.459ZM77.6305 123.011C79.1337 124.181 80.8999 124.61 82.9291 124.296C84.9583 123.983 86.4995 123.043 87.5526 121.477C88.6057 119.911 88.9774 118.126 88.6678 116.124C88.3582 114.121 87.4649 112.532 85.9881 111.357C84.5113 110.182 82.7582 109.752 80.729 110.065C78.6998 110.379 77.1454 111.321 76.066 112.891C75.0129 114.457 74.6411 116.241 74.9508 118.244C75.2604 120.247 76.1536 121.836 77.6305 123.011ZM97.0265 98.6007C96.6478 99.118 96.1158 99.4296 95.4306 99.5355C94.7454 99.6415 94.131 99.5071 93.5874 99.1324C93.0397 98.7314 92.7129 98.1883 92.607 97.5031C92.5051 96.8442 92.6547 96.241 93.0557 95.6933C93.4567 95.1456 93.9999 94.8187 94.685 94.7128C95.3702 94.6069 95.9735 94.7565 96.4949 95.1616C97.0162 95.5667 97.3278 96.0987 97.4297 96.7575C97.5356 97.4427 97.4012 98.0571 97.0265 98.6007ZM97.5659 124.867L94.5102 105.101L97.9098 104.576L100.966 124.341L97.5659 124.867ZM106.422 123.498L103.366 103.732L106.766 103.207L107.236 106.251C108.226 103.75 110.144 102.28 112.99 101.84C115.23 101.494 117.147 101.939 118.742 103.177C120.336 104.414 121.321 106.245 121.696 108.67L123.578 120.845L120.218 121.365L118.415 109.703C118.158 108.043 117.535 106.804 116.545 105.985C115.551 105.141 114.342 104.828 112.919 105.048C111.285 105.301 110.015 106.158 109.107 107.621C108.227 109.079 107.959 110.928 108.306 113.168L109.821 122.972L106.422 123.498ZM144.302 117.844C142.483 118.125 140.941 117.837 139.675 116.98C138.41 116.124 137.624 114.707 137.318 112.731L135.65 101.939L131.46 102.587L130.977 99.4638L135.167 98.816L134.318 93.3212L137.717 92.7957L138.567 98.2904L144.259 97.4103L144.742 100.533L139.05 101.413L140.651 111.77C140.842 113.009 141.24 113.838 141.845 114.257C142.449 114.676 143.318 114.798 144.451 114.623C145.453 114.468 146.236 114.212 146.802 113.855L147.272 116.899C146.372 117.362 145.382 117.677 144.302 117.844ZM154.069 116.131L150.669 116.657L146.086 87.0091L149.486 86.4836L151.484 99.41C152.473 96.9095 154.391 95.4392 157.238 94.9992C159.478 94.6528 161.395 95.0985 162.989 96.3361C164.584 97.5737 165.568 99.4047 165.943 101.829L167.826 114.005L164.466 114.524L162.663 102.863C162.406 101.202 161.783 99.963 160.793 99.1447C159.799 98.3 158.59 97.9876 157.167 98.2076C155.533 98.4602 154.262 99.3177 153.355 100.78C152.474 102.239 152.207 104.088 152.553 106.328L154.069 116.131ZM181.44 112.305C178.568 112.749 176.032 112.142 173.833 110.485C171.661 108.825 170.346 106.518 169.89 103.567C169.429 100.589 169.96 97.9973 171.481 95.7923C173.024 93.557 175.311 92.205 178.342 91.7365C181.399 91.2639 183.964 91.9736 186.037 93.8657C188.111 95.7578 189.284 98.2882 189.558 101.457L173.469 103.944C173.799 105.728 174.69 107.128 176.143 108.145C177.591 109.135 179.211 109.492 181.003 109.215C183.691 108.799 185.431 107.397 186.222 105.008L189.7 104.471C189.485 106.393 188.654 108.086 187.207 109.551C185.761 111.016 183.839 111.934 181.44 112.305ZM182.821 95.5772C181.594 94.7955 180.216 94.5228 178.687 94.7591C177.159 94.9954 175.86 95.6685 174.79 96.7783C173.747 97.884 173.221 99.3685 173.212 101.232L185.546 99.3249C184.952 97.5818 184.044 96.3325 182.821 95.5772ZM210.453 107.617C208.635 107.898 207.093 107.61 205.827 106.753C204.561 105.897 203.776 104.48 203.47 102.504L201.802 91.7119L197.611 92.3597L197.129 89.2368L201.319 88.589L200.469 83.0943L203.869 82.5687L204.718 88.0634L210.411 87.1834L210.894 90.3063L205.201 91.1863L206.802 101.543C206.994 102.782 207.392 103.611 207.996 104.03C208.601 104.449 209.47 104.571 210.603 104.396C211.604 104.241 212.388 103.985 212.953 103.628L213.424 106.672C212.524 107.135 211.534 107.45 210.453 107.617ZM216.821 106.43L213.765 86.6648L217.165 86.1392L217.758 89.9736C217.939 88.7043 218.5 87.6192 219.44 86.7184C220.407 85.8134 221.483 85.2693 222.669 85.0859C223.248 84.9963 223.77 84.9696 224.235 85.0057L224.779 88.5239C224.272 88.3864 223.636 88.3768 222.872 88.4949C221.502 88.7068 220.381 89.4871 219.51 90.836C218.639 92.1849 218.371 93.9398 218.705 96.1008L220.221 105.904L216.821 106.43ZM229.77 78.0787C229.391 78.596 228.859 78.9076 228.174 79.0135C227.489 79.1195 226.874 78.9851 226.331 78.6104C225.783 78.2094 225.456 77.6663 225.35 76.9811C225.248 76.3222 225.398 75.719 225.799 75.1713C226.2 74.6236 226.743 74.2967 227.428 74.1908C228.114 74.0849 228.717 74.2345 229.238 74.6396C229.76 75.0447 230.071 75.5766 230.173 76.2355C230.279 76.9207 230.145 77.5351 229.77 78.0787ZM230.309 104.345L227.254 84.5795L230.653 84.0539L233.709 103.819L230.309 104.345ZM249.583 101.77C248.134 101.994 246.727 101.887 245.365 101.45C244.024 100.983 242.934 100.302 242.094 99.4062L242.565 102.45L239.165 102.976L234.581 73.3278L237.981 72.8022L239.979 85.7287C240.51 84.6213 241.345 83.6556 242.486 82.8317C243.649 81.9773 244.956 81.438 246.405 81.2139C249.146 80.7902 251.593 81.4372 253.748 83.1549C255.929 84.8685 257.239 87.1484 257.679 89.9945C258.119 92.8407 257.558 95.4099 255.997 97.702C254.462 99.9901 252.324 101.346 249.583 101.77ZM243.446 97.4163C244.923 98.5911 246.636 99.0278 248.586 98.7263C250.537 98.4248 252.038 97.4911 253.091 95.9251C254.144 94.3592 254.514 92.5616 254.2 90.5323C253.887 88.5031 252.991 86.9011 251.515 85.7263C250.038 84.5514 248.324 84.1148 246.374 84.4163C244.424 84.7178 242.922 85.6515 241.869 87.2174C240.816 88.7834 240.446 90.581 240.76 92.6102C241.074 94.6394 241.969 96.2415 243.446 97.4163ZM271.557 98.3725C268.685 98.8166 266.149 98.2103 263.95 96.5534C261.777 94.8925 260.463 92.5863 260.007 89.6347C259.546 86.6567 260.077 84.0653 261.598 81.8604C263.141 79.625 265.428 78.273 268.458 77.8045C271.515 77.3319 274.081 78.0416 276.154 79.9337C278.228 81.8258 279.401 84.3562 279.675 87.5249L263.586 90.0122C263.916 91.7961 264.807 93.1964 266.26 94.2131C267.708 95.2034 269.328 95.5601 271.12 95.283C273.808 94.8675 275.548 93.4652 276.339 91.0763L279.817 90.5385C279.602 92.4607 278.771 94.1542 277.324 95.6191C275.878 97.084 273.955 98.0018 271.557 98.3725ZM272.938 81.6452C271.711 80.8635 270.333 80.5908 268.804 80.8271C267.276 81.0634 265.977 81.7365 264.907 82.8463C263.864 83.952 263.338 85.4365 263.329 87.2997L275.662 85.3929C275.069 83.6498 274.161 82.4005 272.938 81.6452Z" fill="#050401"/>
<path d="M67.9275 167.233L68.1811 168.873L59.0891 170.279L58.9852 169.607C58.9099 169.119 58.911 168.647 58.9888 168.19C59.0776 167.717 59.1909 167.315 59.3285 166.984C59.4661 166.652 59.7041 166.271 60.0423 165.841C60.3785 165.398 60.6454 165.073 60.8429 164.867C61.0384 164.648 61.3712 164.313 61.8412 163.863C62.3092 163.399 62.6197 163.095 62.7727 162.95C63.6023 162.12 64.1593 161.447 64.4438 160.931C64.7394 160.4 64.8281 159.752 64.71 158.987C64.5959 158.25 64.2681 157.7 63.7265 157.338C63.1829 156.964 62.5289 156.835 61.7647 156.954C60.9609 157.078 60.3134 157.428 59.8221 158.003C59.3309 158.578 59.1525 159.3 59.287 160.17L57.5476 160.439C57.3439 159.121 57.6138 157.987 58.3571 157.035C59.1137 156.082 60.1574 155.502 61.4882 155.296C62.7268 155.105 63.8096 155.302 64.7366 155.887C65.6767 156.47 66.2487 157.421 66.4524 158.738C66.6072 159.74 66.4958 160.634 66.1183 161.421C65.7387 162.195 65.0222 163.101 63.9687 164.141C63.7691 164.334 63.4875 164.607 63.1239 164.96C62.7582 165.3 62.4766 165.573 62.279 165.779C62.0815 165.984 61.8637 166.234 61.6257 166.527C61.3989 166.805 61.2278 167.095 61.1124 167.396C61.0082 167.682 60.9476 167.988 60.9306 168.314L67.9275 167.233ZM76.6791 167.559L76.0893 163.745L68.6181 164.9L68.4072 163.536L74.727 153.492L76.2094 153.263L77.5416 161.881L79.4786 161.581L79.7261 163.182L77.7891 163.482L78.3789 167.297L76.6791 167.559ZM70.5843 162.957L75.8418 162.144L74.9068 156.096L70.5843 162.957ZM87.2482 166.128C85.7856 166.354 84.5177 166.051 83.4446 165.218C82.3694 164.373 81.7116 163.172 81.4713 161.617L80.8662 157.704C80.6259 156.149 80.8915 154.813 81.6631 153.695C82.4459 152.562 83.562 151.884 85.0114 151.66C86.4609 151.436 87.7298 151.745 88.8181 152.589C89.9064 153.433 90.5698 154.625 90.8081 156.167L91.4132 160.08C91.6535 161.635 91.3823 162.979 90.5996 164.112C89.8148 165.232 88.6976 165.904 87.2482 166.128ZM86.9915 164.467C87.9666 164.317 88.7073 163.872 89.2136 163.132C89.7199 162.393 89.8865 161.463 89.7133 160.343L89.1083 156.43C88.9352 155.31 88.4956 154.474 87.7897 153.922C87.0837 153.37 86.2432 153.169 85.2681 153.32C84.3062 153.469 83.5721 153.913 83.0658 154.652C82.5595 155.391 82.3929 156.321 82.566 157.441L83.1711 161.355C83.3442 162.475 83.7838 163.311 84.4897 163.863C85.1957 164.415 86.0296 164.616 86.9915 164.467ZM99.5628 164.224C98.1002 164.45 96.8323 164.147 95.7592 163.314C94.6841 162.469 94.0263 161.268 93.7859 159.714L93.1809 155.8C92.9405 154.245 93.2061 152.909 93.9777 151.791C94.7605 150.658 95.8766 149.98 97.3261 149.756C98.7755 149.532 100.044 149.842 101.133 150.685C102.221 151.529 102.884 152.721 103.123 154.263L103.728 158.177C103.968 159.731 103.697 161.075 102.914 162.208C102.129 163.328 101.012 164 99.5628 164.224ZM99.3062 162.564C100.281 162.413 101.022 161.968 101.528 161.228C102.035 160.489 102.201 159.559 102.028 158.439L101.423 154.526C101.25 153.406 100.81 152.57 100.104 152.018C99.3983 151.466 98.5578 151.265 97.5827 151.416C96.6208 151.565 95.8867 152.009 95.3804 152.748C94.8741 153.488 94.7075 154.417 94.8807 155.537L95.4857 159.451C95.6589 160.571 96.0984 161.407 96.8044 161.959C97.5103 162.511 98.3442 162.712 99.3062 162.564ZM105.684 157.996L105.449 156.474L108.868 155.945L108.343 152.545L109.884 152.307L110.41 155.707L113.809 155.181L114.045 156.703L110.645 157.229L111.171 160.628L109.629 160.867L109.103 157.467L105.684 157.996ZM122.281 150.391L124.011 161.578C124.163 162.566 124.003 163.36 123.529 163.959C123.055 164.559 122.377 164.927 121.494 165.063C121.191 165.11 120.917 165.132 120.674 165.129L120.439 163.607C120.654 163.601 120.847 163.585 121.018 163.558C122.033 163.401 122.453 162.763 122.28 161.643L120.581 150.653L122.281 150.391ZM121.84 147.403C121.65 147.662 121.384 147.817 121.042 147.87C120.699 147.923 120.392 147.856 120.12 147.669C119.846 147.468 119.683 147.197 119.63 146.854C119.579 146.525 119.654 146.223 119.854 145.949C120.055 145.675 120.326 145.512 120.669 145.459C121.011 145.406 121.313 145.481 121.574 145.683C121.834 145.886 121.99 146.152 122.041 146.481C122.094 146.824 122.027 147.131 121.84 147.403ZM131.446 159.295C129.957 159.525 128.642 159.222 127.501 158.387C126.371 157.536 125.695 156.393 125.473 154.956C125.251 153.52 125.551 152.233 126.373 151.094C127.207 149.939 128.368 149.247 129.857 149.017C131.333 148.789 132.636 149.1 133.766 149.951C134.907 150.786 135.588 151.922 135.81 153.358C136.032 154.795 135.727 156.09 134.893 157.244C134.071 158.383 132.922 159.067 131.446 159.295ZM128.552 157.071C129.304 157.656 130.187 157.87 131.201 157.714C132.216 157.557 132.987 157.087 133.513 156.304C134.04 155.521 134.226 154.629 134.071 153.627C133.916 152.626 133.469 151.831 132.731 151.244C131.993 150.657 131.116 150.441 130.101 150.598C129.087 150.755 128.31 151.226 127.77 152.011C127.243 152.794 127.057 153.686 127.212 154.688C127.367 155.689 127.814 156.483 128.552 157.071ZM138.744 144.789C138.555 145.048 138.289 145.204 137.946 145.257C137.604 145.31 137.297 145.243 137.025 145.055C136.751 144.855 136.588 144.583 136.535 144.241C136.484 143.911 136.558 143.61 136.759 143.336C136.959 143.062 137.231 142.898 137.574 142.846C137.916 142.793 138.218 142.867 138.478 143.07C138.739 143.272 138.895 143.538 138.946 143.868C138.999 144.21 138.932 144.518 138.744 144.789ZM139.014 157.922L137.486 148.04L139.186 147.777L140.714 157.66L139.014 157.922ZM143.936 157.162L142.408 147.279L144.108 147.016L144.343 148.538C144.838 147.288 145.797 146.553 147.22 146.333C148.34 146.159 149.299 146.382 150.096 147.001C150.893 147.62 151.386 148.535 151.573 149.748L152.514 155.835L150.834 156.095L149.933 150.264C149.804 149.434 149.493 148.815 148.998 148.405C148.501 147.983 147.896 147.827 147.185 147.937C146.368 148.063 145.733 148.492 145.279 149.223C144.838 149.952 144.705 150.877 144.878 151.997L145.636 156.899L143.936 157.162ZM159.816 154.909C158.379 155.131 157.111 154.828 156.012 153.999C154.926 153.169 154.268 152.016 154.04 150.54C153.81 149.051 154.075 147.755 154.836 146.653C155.607 145.535 156.751 144.859 158.266 144.625C159.795 144.389 161.077 144.743 162.114 145.69C163.151 146.636 163.738 147.901 163.875 149.485L155.83 150.729C155.995 151.621 156.441 152.321 157.167 152.829C157.891 153.324 158.701 153.503 159.597 153.364C160.941 153.156 161.811 152.455 162.206 151.261L163.946 150.992C163.838 151.953 163.422 152.8 162.699 153.532C161.976 154.265 161.015 154.724 159.816 154.909ZM160.506 146.545C159.892 146.154 159.203 146.018 158.439 146.136C157.675 146.254 157.025 146.591 156.491 147.146C155.969 147.699 155.706 148.441 155.701 149.372L161.868 148.419C161.572 147.548 161.117 146.923 160.506 146.545ZM171.123 153.161C169.753 153.373 168.523 153.05 167.432 152.193C166.355 151.335 165.706 150.194 165.486 148.77C165.266 147.347 165.54 146.064 166.308 144.92C167.088 143.774 168.164 143.095 169.534 142.883C170.259 142.771 170.957 142.832 171.627 143.065C172.308 143.284 172.859 143.617 173.279 144.065L172.28 137.601L173.979 137.339L176.271 152.163L174.571 152.425L174.336 150.903C174.071 151.457 173.648 151.948 173.066 152.375C172.496 152.787 171.848 153.049 171.123 153.161ZM171.139 151.56C172.114 151.409 172.865 150.942 173.391 150.159C173.918 149.376 174.103 148.477 173.946 147.463C173.789 146.448 173.341 145.647 172.603 145.06C171.865 144.472 171.008 144.254 170.033 144.405C169.044 144.557 168.287 145.025 167.76 145.808C167.234 146.591 167.049 147.49 167.206 148.505C167.363 149.519 167.81 150.32 168.549 150.908C169.287 151.495 170.151 151.712 171.139 151.56Z" fill="#FF1414"/>
<rect x="62.1426" y="199.151" width="306" height="74" rx="16" transform="rotate(-8.7883 62.1426 199.151)" fill="#95AC00"/>
<path d="M164.447 229.882L158.942 220.193L156.62 231.092L154.058 231.488L147.114 215.319L150.032 214.868L154.983 226.633L157.886 213.362L164.637 225.141L165.828 212.426L168.769 211.971L167.008 229.486L164.447 229.882ZM177.693 228.077C176.08 228.326 174.627 227.935 173.334 226.905C172.057 225.872 171.287 224.501 171.023 222.794C170.759 221.086 171.08 219.547 171.985 218.177C172.906 216.804 174.173 215.993 175.786 215.743C176.592 215.619 177.363 215.686 178.1 215.944C178.833 216.187 179.421 216.533 179.863 216.983L179.617 215.394L182.226 214.99L184.06 226.85L181.451 227.253L181.205 225.664C180.92 226.226 180.465 226.741 179.841 227.21C179.215 227.663 178.499 227.952 177.693 228.077ZM175.094 224.933C175.87 225.558 176.772 225.79 177.8 225.632C178.828 225.473 179.618 224.978 180.169 224.148C180.721 223.318 180.914 222.366 180.748 221.29C180.581 220.215 180.11 219.365 179.333 218.74C178.557 218.116 177.655 217.883 176.627 218.042C175.599 218.201 174.809 218.695 174.258 219.525C173.706 220.355 173.513 221.308 173.68 222.383C173.846 223.458 174.317 224.308 175.094 224.933ZM186.666 211.657C186.191 211.73 185.755 211.628 185.355 211.35C184.954 211.056 184.715 210.663 184.639 210.173C184.566 209.699 184.678 209.269 184.974 208.883C185.268 208.481 185.652 208.244 186.127 208.17C186.617 208.095 187.055 208.205 187.441 208.502C187.824 208.782 188.053 209.16 188.126 209.634C188.202 210.124 188.1 210.569 187.822 210.968C187.541 211.352 187.156 211.581 186.666 211.657ZM187.594 226.303L185.761 214.444L188.37 214.041L190.203 225.9L187.594 226.303ZM198.874 224.681C197.673 224.866 196.641 224.686 195.779 224.139C194.931 223.574 194.408 222.651 194.21 221.37L193.326 215.654L190.859 216.036L190.5 213.711L192.967 213.33L192.457 210.033L195.066 209.63L195.576 212.927L198.968 212.402L199.327 214.727L195.935 215.251L196.753 220.54C196.865 221.268 197.104 221.765 197.469 222.032C197.832 222.284 198.361 222.356 199.057 222.248C199.626 222.16 200.08 222.009 200.42 221.795L200.779 224.119C200.237 224.381 199.602 224.568 198.874 224.681ZM203.275 223.879L200.525 206.09L203.134 205.687L205.884 223.475L203.275 223.879ZM208.462 208.287C207.987 208.361 207.55 208.258 207.151 207.98C206.75 207.686 206.511 207.294 206.435 206.804C206.362 206.329 206.473 205.899 206.77 205.513C207.064 205.112 207.448 204.874 207.922 204.801C208.413 204.725 208.851 204.835 209.237 205.132C209.62 205.413 209.848 205.79 209.922 206.265C209.997 206.755 209.896 207.199 209.618 207.599C209.337 207.982 208.952 208.212 208.462 208.287ZM209.39 222.933L207.557 211.074L210.166 210.671L211.999 222.53L209.39 222.933ZM219.716 221.58C218.309 221.798 217.069 221.633 215.997 221.086C214.941 220.537 214.29 219.683 214.046 218.522L216.75 218.104C217.121 219.245 218.026 219.704 219.465 219.482C220.05 219.391 220.5 219.216 220.816 218.957C221.13 218.682 221.255 218.339 221.191 217.928C221.128 217.517 220.943 217.213 220.638 217.018C220.332 216.822 219.851 216.694 219.194 216.634L217.169 216.413C215.062 216.188 213.865 215.15 213.579 213.3C213.425 212.304 213.705 211.443 214.418 210.718C215.129 209.977 216.149 209.503 217.477 209.298C218.758 209.1 219.86 209.261 220.782 209.783C221.705 210.304 222.296 211.095 222.557 212.155L219.948 212.559C219.544 211.617 218.82 211.227 217.776 211.389C217.254 211.469 216.852 211.645 216.57 211.915C216.286 212.17 216.173 212.487 216.232 212.866C216.337 213.546 216.94 213.938 218.041 214.043L220.114 214.257C222.3 214.47 223.536 215.501 223.822 217.351C223.996 218.474 223.695 219.411 222.921 220.162C222.16 220.895 221.092 221.367 219.716 221.58ZM231.904 219.574C230.702 219.76 229.67 219.58 228.809 219.033C227.961 218.468 227.437 217.545 227.239 216.264L226.356 210.548L223.889 210.929L223.53 208.605L225.996 208.224L225.487 204.927L228.096 204.523L228.605 207.82L231.997 207.296L232.356 209.62L228.965 210.145L229.782 215.434C229.895 216.161 230.134 216.659 230.499 216.926C230.861 217.177 231.391 217.249 232.086 217.142C232.656 217.054 233.11 216.903 233.449 216.688L233.808 219.013C233.266 219.275 232.631 219.462 231.904 219.574ZM256.877 215.592L254.458 215.966L243.096 205.313L244.97 217.433L242.195 217.862L239.592 201.022L242.011 200.648L253.345 211.281L251.475 199.185L254.273 198.752L256.877 215.592ZM269.997 211.985C268.994 213.354 267.615 214.175 265.86 214.446C264.105 214.717 262.535 214.353 261.15 213.353C259.778 212.335 258.959 210.964 258.692 209.24C258.426 207.517 258.794 205.97 259.797 204.601C260.813 203.213 262.198 202.384 263.953 202.113C265.708 201.841 267.272 202.215 268.644 203.233C270.029 204.233 270.854 205.595 271.121 207.319C271.387 209.042 271.013 210.598 269.997 211.985ZM265.486 212.027C266.514 211.868 267.305 211.381 267.859 210.567C268.426 209.735 268.628 208.789 268.464 207.729C268.301 206.67 267.824 205.837 267.034 205.231C266.257 204.606 265.355 204.373 264.327 204.532C263.284 204.693 262.478 205.19 261.911 206.023C261.357 206.837 261.161 207.774 261.325 208.833C261.489 209.893 261.959 210.735 262.736 211.359C263.526 211.966 264.442 212.188 265.486 212.027ZM284.673 211.295L280.879 204.037L279.479 212.098L277.012 212.479L271.194 201.236L273.945 200.811L277.772 208.598L279.234 199.993L281.227 199.685L285.172 207.454L286.516 198.867L289.291 198.438L287.14 210.913L284.673 211.295Z" fill="white"/>
</svg>
