<svg width="368" height="310" viewBox="0 0 368 310" fill="none" xmlns="http://www.w3.org/2000/svg">
<rect y="50.6328" width="331.404" height="262" rx="16" transform="rotate(-8.7883 0 50.6328)" fill="white"/>
<path d="M77.3291 119.628L67.5052 101.638L63.6121 121.749L60.3311 122.256L48.3231 95.375L52.1575 94.7822L61.3937 115.778L66.0384 92.1505L77.6012 113.272L80.1055 90.4615L83.94 89.8687L80.6101 119.121L77.3291 119.628ZM98.4973 116.76C95.7565 117.184 93.2958 116.539 91.115 114.825C88.9606 113.108 87.6634 110.826 87.2234 107.98C86.7834 105.133 87.3309 102.566 88.866 100.278C90.4275 97.9861 92.5786 96.6282 95.3194 96.2045C96.7688 95.9804 98.1638 96.102 99.5043 96.5694C100.867 97.0063 101.968 97.6725 102.808 98.568L102.338 95.5242L105.737 94.9986L108.793 114.764L105.394 115.289L104.923 112.246C104.393 113.353 103.546 114.334 102.383 115.188C101.242 116.012 99.9467 116.536 98.4973 116.76ZM98.5284 113.558C100.479 113.256 101.98 112.323 103.033 110.757C104.086 109.191 104.456 107.393 104.142 105.364C103.829 103.335 102.933 101.733 101.457 100.558C99.9797 99.3831 98.2663 98.9464 96.3161 99.2479C94.3396 99.5535 92.8247 100.489 91.7716 102.055C90.7185 103.621 90.3488 105.419 90.6625 107.448C90.9763 109.477 91.8715 111.079 93.3484 112.254C94.8252 113.429 96.5519 113.863 98.5284 113.558ZM113.665 87.6613C113.286 88.1785 112.754 88.4901 112.069 88.5961C111.384 88.702 110.769 88.5676 110.226 88.193C109.678 87.7919 109.351 87.2488 109.245 86.5636C109.143 85.9048 109.293 85.3015 109.694 84.7538C110.095 84.2061 110.638 83.8793 111.323 83.7734C112.009 83.6674 112.612 83.817 113.133 84.2221C113.654 84.6272 113.966 85.1592 114.068 85.818C114.174 86.5032 114.039 87.1176 113.665 87.6613ZM114.204 113.927L111.148 94.162L114.548 93.6365L117.604 113.402L114.204 113.927ZM130.759 111.57C128.941 111.851 127.399 111.564 126.133 110.707C124.867 109.85 124.082 108.434 123.776 106.457L122.108 95.6653L117.918 96.3131L117.435 93.1902L121.625 92.5424L120.775 87.0477L124.175 86.5221L125.025 92.0168L130.717 91.1368L131.2 94.2597L125.507 95.1397L127.109 105.497C127.3 106.735 127.698 107.564 128.303 107.983C128.907 108.403 129.776 108.525 130.909 108.35C131.91 108.195 132.694 107.939 133.259 107.581L133.73 110.625C132.83 111.088 131.84 111.403 130.759 111.57ZM137.127 110.383L132.544 80.7356L135.943 80.21L140.527 109.858L137.127 110.383ZM145.444 82.7483C145.065 83.2656 144.533 83.5772 143.848 83.6831C143.162 83.789 142.548 83.6547 142.004 83.28C141.457 82.879 141.13 82.3359 141.024 81.6507C140.922 80.9918 141.072 80.3886 141.473 79.8409C141.874 79.2932 142.417 78.9663 143.102 78.8604C143.787 78.7545 144.391 78.9041 144.912 79.3092C145.433 79.7143 145.745 80.2462 145.847 80.9051C145.953 81.5903 145.818 82.2047 145.444 82.7483ZM145.983 109.014L142.927 89.2491L146.327 88.7235L149.383 108.489L145.983 109.014ZM161.264 107.057C159.05 107.399 157.109 107.146 155.44 106.298C153.797 105.445 152.748 104.069 152.292 102.17L155.771 101.632C156.153 102.706 156.806 103.442 157.731 103.839C158.682 104.231 159.724 104.34 160.858 104.165C161.991 103.99 162.865 103.625 163.481 103.071C164.124 102.513 164.379 101.812 164.249 100.969C164.127 100.178 163.764 99.5735 163.159 99.1543C162.581 98.731 161.688 98.4508 160.479 98.3138L157.517 98.0028C153.979 97.6323 151.979 95.9581 151.519 92.9802C151.271 91.3726 151.703 89.9835 152.818 88.8129C153.958 87.6381 155.53 86.896 157.533 86.5863C159.562 86.2726 161.306 86.5562 162.764 87.437C164.245 88.2875 165.191 89.5174 165.601 91.1269L162.202 91.6525C161.804 90.8236 161.223 90.2117 160.461 89.8169C159.725 89.418 158.895 89.2899 157.973 89.4325C156.998 89.5833 156.215 89.9336 155.626 90.4834C155.063 91.0292 154.838 91.6711 154.952 92.409C155.062 93.1205 155.389 93.6636 155.933 94.0383C156.476 94.413 157.297 94.6638 158.396 94.7907L161.687 95.1319C165.191 95.4537 167.179 97.1431 167.652 100.2C167.945 102.098 167.495 103.638 166.302 104.821C165.104 105.977 163.425 106.722 161.264 107.057ZM179.694 104.005C177.875 104.286 176.333 103.998 175.067 103.142C173.802 102.285 173.016 100.868 172.71 98.8919L171.042 88.1001L166.852 88.7479L166.369 85.625L170.559 84.9772L169.71 79.4825L173.109 78.9569L173.959 84.4516L179.651 83.5716L180.134 86.6945L174.442 87.5745L176.043 97.9315C176.234 99.1701 176.632 99.999 177.237 100.418C177.841 100.837 178.71 100.96 179.843 100.784C180.845 100.629 181.628 100.373 182.194 100.016L182.664 103.06C181.764 103.523 180.774 103.838 179.694 104.005ZM194.608 101.497L191.553 81.7316L194.952 81.2061L195.423 84.2499C196.412 81.7493 198.33 80.2791 201.177 79.839C203.417 79.4927 205.334 79.9384 206.928 81.176C208.523 82.4135 209.507 84.2446 209.882 86.6691L211.765 98.8445L208.404 99.364L206.602 87.7025C206.345 86.0422 205.722 84.8029 204.732 83.9845C203.738 83.1398 202.529 82.8275 201.106 83.0475C199.472 83.3001 198.201 84.1576 197.294 85.6201C196.413 87.0784 196.146 88.9277 196.492 91.1677L198.008 100.971L194.608 101.497ZM225.735 97.0894C222.757 97.5498 220.127 96.9445 217.845 95.2736C215.585 93.5722 214.233 91.2852 213.789 88.4127C213.345 85.5401 213.945 82.9649 215.59 80.6869C217.257 78.3784 219.579 76.994 222.557 76.5336C225.509 76.0773 228.115 76.6998 230.374 78.4012C232.656 80.0722 234.019 82.3439 234.464 85.2164C234.908 88.089 234.296 90.6795 232.629 92.9879C230.985 95.2659 228.687 96.6331 225.735 97.0894ZM219.948 92.6414C221.451 93.8122 223.217 94.2407 225.246 93.927C227.275 93.6133 228.817 92.6734 229.87 91.1075C230.923 89.5415 231.295 87.7571 230.985 85.7542C230.675 83.7514 229.782 82.1625 228.305 80.9877C226.828 79.8129 225.075 79.3823 223.046 79.696C221.017 80.0098 219.463 80.9516 218.383 82.5217C217.33 84.0876 216.958 85.872 217.268 87.8749C217.578 89.8778 218.471 91.4666 219.948 92.6414ZM256.567 91.9181L249.471 78.4845L246.803 93.4276L243.798 93.8921L234.023 75.1658L237.58 74.6158L244.594 88.3049L247.305 73.1124L249.914 72.7091L257.086 86.3737L259.638 71.2057L263.235 70.6495L259.571 91.4537L256.567 91.9181Z" fill="#050401"/>
<path d="M67.9275 158.865L68.1811 160.506L59.0891 161.912L58.9852 161.24C58.9099 160.752 58.911 160.28 58.9888 159.822C59.0776 159.35 59.1909 158.948 59.3285 158.616C59.4661 158.285 59.7041 157.904 60.0423 157.474C60.3785 157.031 60.6454 156.706 60.8429 156.5C61.0384 156.281 61.3712 155.946 61.8412 155.496C62.3092 155.032 62.6197 154.728 62.7727 154.583C63.6023 153.753 64.1593 153.08 64.4438 152.564C64.7394 152.032 64.8281 151.384 64.71 150.62C64.5959 149.882 64.2681 149.333 63.7265 148.971C63.1829 148.596 62.5289 148.468 61.7647 148.586C60.9609 148.711 60.3134 149.06 59.8221 149.635C59.3309 150.211 59.1525 150.933 59.287 151.803L57.5476 152.072C57.3439 150.754 57.6138 149.619 58.3571 148.668C59.1137 147.714 60.1574 147.135 61.4882 146.929C62.7268 146.738 63.8096 146.935 64.7366 147.52C65.6767 148.103 66.2487 149.053 66.4524 150.371C66.6072 151.373 66.4958 152.267 66.1183 153.054C65.7387 153.827 65.0222 154.734 63.9687 155.774C63.7691 155.967 63.4875 156.24 63.1239 156.593C62.7582 156.933 62.4766 157.205 62.279 157.411C62.0815 157.617 61.8637 157.867 61.6257 158.16C61.3989 158.438 61.2278 158.727 61.1124 159.029C61.0082 159.315 60.9476 159.621 60.9306 159.947L67.9275 158.865ZM76.6791 159.192L76.0893 155.378L68.6181 156.533L68.4072 155.169L74.727 145.125L76.2094 144.896L77.5416 153.514L79.4786 153.214L79.7261 154.815L77.7891 155.115L78.3789 158.929L76.6791 159.192ZM70.5843 154.589L75.8418 153.777L74.9068 147.728L70.5843 154.589ZM87.2482 157.761C85.7856 157.987 84.5177 157.684 83.4446 156.851C82.3694 156.005 81.7116 154.805 81.4713 153.25L80.8662 149.337C80.6259 147.782 80.8915 146.446 81.6631 145.328C82.4459 144.195 83.562 143.517 85.0114 143.292C86.4609 143.068 87.7298 143.378 88.8181 144.222C89.9064 145.065 90.5698 146.258 90.8081 147.8L91.4132 151.713C91.6535 153.268 91.3823 154.612 90.5996 155.745C89.8148 156.865 88.6976 157.537 87.2482 157.761ZM86.9915 156.1C87.9666 155.95 88.7073 155.505 89.2136 154.765C89.7199 154.026 89.8865 153.096 89.7133 151.976L89.1083 148.063C88.9352 146.943 88.4956 146.107 87.7897 145.555C87.0837 145.003 86.2432 144.802 85.2681 144.953C84.3062 145.101 83.5721 145.545 83.0658 146.285C82.5595 147.024 82.3929 147.954 82.566 149.074L83.1711 152.987C83.3442 154.107 83.7838 154.943 84.4897 155.495C85.1957 156.047 86.0296 156.249 86.9915 156.1ZM99.5628 155.857C98.1002 156.083 96.8323 155.78 95.7592 154.947C94.6841 154.102 94.0263 152.901 93.7859 151.346L93.1809 147.433C92.9405 145.878 93.2061 144.542 93.9777 143.424C94.7605 142.291 95.8766 141.613 97.3261 141.389C98.7755 141.165 100.044 141.474 101.133 142.318C102.221 143.162 102.884 144.354 103.123 145.896L103.728 149.809C103.968 151.364 103.697 152.708 102.914 153.841C102.129 154.961 101.012 155.633 99.5628 155.857ZM99.3062 154.196C100.281 154.046 101.022 153.601 101.528 152.861C102.035 152.122 102.201 151.192 102.028 150.072L101.423 146.159C101.25 145.039 100.81 144.203 100.104 143.651C99.3983 143.099 98.5578 142.898 97.5827 143.049C96.6208 143.198 95.8867 143.642 95.3804 144.381C94.8741 145.12 94.7075 146.05 94.8807 147.17L95.4857 151.084C95.6589 152.204 96.0984 153.04 96.8044 153.592C97.5103 154.144 98.3442 154.345 99.3062 154.196ZM105.684 149.628L105.449 148.106L108.868 147.578L108.343 144.178L109.884 143.94L110.41 147.34L113.809 146.814L114.045 148.336L110.645 148.861L111.171 152.261L109.629 152.499L109.103 149.1L105.684 149.628ZM122.281 142.023L124.011 153.21C124.163 154.199 124.003 154.993 123.529 155.592C123.055 156.191 122.377 156.559 121.494 156.696C121.191 156.743 120.917 156.765 120.674 156.762L120.439 155.24C120.654 155.234 120.847 155.217 121.018 155.191C122.033 155.034 122.453 154.396 122.28 153.276L120.581 142.286L122.281 142.023ZM121.84 139.036C121.65 139.294 121.384 139.45 121.042 139.503C120.699 139.556 120.392 139.489 120.12 139.302C119.846 139.101 119.683 138.83 119.63 138.487C119.579 138.158 119.654 137.856 119.854 137.582C120.055 137.308 120.326 137.145 120.669 137.092C121.011 137.039 121.313 137.114 121.574 137.316C121.834 137.519 121.99 137.785 122.041 138.114C122.094 138.457 122.027 138.764 121.84 139.036ZM131.446 150.928C129.957 151.158 128.642 150.855 127.501 150.02C126.371 149.169 125.695 148.026 125.473 146.589C125.251 145.153 125.551 143.865 126.373 142.726C127.207 141.572 128.368 140.88 129.857 140.65C131.333 140.422 132.636 140.733 133.766 141.584C134.907 142.419 135.588 143.555 135.81 144.991C136.032 146.427 135.727 147.723 134.893 148.877C134.071 150.016 132.922 150.699 131.446 150.928ZM128.552 148.704C129.304 149.289 130.187 149.503 131.201 149.346C132.216 149.19 132.987 148.72 133.513 147.937C134.04 147.154 134.226 146.262 134.071 145.26C133.916 144.259 133.469 143.464 132.731 142.877C131.993 142.289 131.116 142.074 130.101 142.231C129.087 142.388 128.31 142.859 127.77 143.644C127.243 144.427 127.057 145.319 127.212 146.32C127.367 147.322 127.814 148.116 128.552 148.704ZM138.744 136.422C138.555 136.681 138.289 136.837 137.946 136.89C137.604 136.943 137.297 136.875 137.025 136.688C136.751 136.488 136.588 136.216 136.535 135.873C136.484 135.544 136.558 135.242 136.759 134.969C136.959 134.695 137.231 134.531 137.574 134.478C137.916 134.425 138.218 134.5 138.478 134.703C138.739 134.905 138.895 135.171 138.946 135.501C138.999 135.843 138.932 136.15 138.744 136.422ZM139.014 149.555L137.486 139.673L139.186 139.41L140.714 149.292L139.014 149.555ZM143.936 148.794L142.408 138.912L144.108 138.649L144.343 140.171C144.838 138.921 145.797 138.185 147.22 137.965C148.34 137.792 149.299 138.015 150.096 138.634C150.893 139.253 151.386 140.168 151.573 141.38L152.514 147.468L150.834 147.728L149.933 141.897C149.804 141.067 149.493 140.447 148.998 140.038C148.501 139.616 147.896 139.46 147.185 139.57C146.368 139.696 145.733 140.125 145.279 140.856C144.838 141.585 144.705 142.51 144.878 143.63L145.636 148.532L143.936 148.794ZM159.816 146.542C158.379 146.764 157.111 146.461 156.012 145.632C154.926 144.802 154.268 143.649 154.04 142.173C153.81 140.684 154.075 139.388 154.836 138.286C155.607 137.168 156.751 136.492 158.266 136.258C159.795 136.021 161.077 136.376 162.114 137.322C163.151 138.268 163.738 139.534 163.875 141.118L155.83 142.362C155.995 143.254 156.441 143.954 157.167 144.462C157.891 144.957 158.701 145.136 159.597 144.997C160.941 144.789 161.811 144.088 162.206 142.894L163.946 142.625C163.838 143.586 163.422 144.433 162.699 145.165C161.976 145.897 161.015 146.356 159.816 146.542ZM160.506 138.178C159.892 137.787 159.203 137.651 158.439 137.769C157.675 137.887 157.025 138.224 156.491 138.779C155.969 139.331 155.706 140.074 155.701 141.005L161.868 140.052C161.572 139.18 161.117 138.556 160.506 138.178ZM171.123 144.794C169.753 145.005 168.523 144.683 167.432 143.826C166.355 142.967 165.706 141.826 165.486 140.403C165.266 138.98 165.54 137.697 166.308 136.553C167.088 135.406 168.164 134.728 169.534 134.516C170.259 134.404 170.957 134.464 171.627 134.698C172.308 134.917 172.859 135.25 173.279 135.697L172.28 129.234L173.979 128.971L176.271 143.795L174.571 144.058L174.336 142.536C174.071 143.09 173.648 143.58 173.066 144.008C172.496 144.42 171.848 144.682 171.123 144.794ZM171.139 143.192C172.114 143.042 172.865 142.575 173.391 141.792C173.918 141.009 174.103 140.11 173.946 139.095C173.789 138.081 173.341 137.28 172.603 136.692C171.865 136.105 171.008 135.887 170.033 136.037C169.044 136.19 168.287 136.658 167.76 137.441C167.234 138.224 167.049 139.123 167.206 140.137C167.363 141.152 167.81 141.953 168.549 142.54C169.287 143.128 170.151 143.345 171.139 143.192Z" fill="#FF1414"/>
<rect x="62.1426" y="190.784" width="251.404" height="74" rx="16" transform="rotate(-8.7883 62.1426 190.784)" fill="#179B03"/>
<path d="M137.469 225.685L131.964 215.997L129.642 226.895L127.081 227.291L120.137 211.123L123.054 210.672L128.006 222.437L130.908 209.166L137.659 220.945L138.85 208.229L141.791 207.775L140.031 225.289L137.469 225.685ZM150.715 223.88C149.102 224.13 147.649 223.739 146.357 222.709C145.08 221.676 144.31 220.305 144.046 218.597C143.782 216.89 144.102 215.351 145.007 213.98C145.928 212.607 147.195 211.796 148.808 211.547C149.615 211.422 150.386 211.489 151.122 211.748C151.856 211.991 152.444 212.337 152.886 212.787L152.64 211.197L155.249 210.794L157.082 222.653L154.473 223.057L154.228 221.467C153.942 222.03 153.488 222.545 152.864 223.014C152.238 223.467 151.521 223.756 150.715 223.88ZM148.116 220.737C148.893 221.361 149.795 221.594 150.823 221.435C151.85 221.276 152.64 220.782 153.192 219.952C153.744 219.122 153.936 218.169 153.77 217.094C153.604 216.019 153.132 215.169 152.356 214.544C151.579 213.919 150.677 213.687 149.649 213.845C148.621 214.004 147.832 214.499 147.28 215.329C146.728 216.159 146.536 217.112 146.702 218.187C146.868 219.262 147.34 220.112 148.116 220.737ZM159.688 207.461C159.214 207.534 158.777 207.432 158.378 207.153C157.976 206.859 157.738 206.467 157.662 205.977C157.588 205.503 157.7 205.072 157.997 204.687C158.291 204.285 158.675 204.047 159.149 203.974C159.639 203.898 160.077 204.009 160.463 204.305C160.847 204.586 161.075 204.964 161.148 205.438C161.224 205.928 161.123 206.373 160.845 206.772C160.564 207.155 160.178 207.385 159.688 207.461ZM160.617 222.107L158.783 210.248L161.392 209.844L163.226 221.703L160.617 222.107ZM171.897 220.484C170.695 220.67 169.663 220.49 168.802 219.943C167.954 219.378 167.43 218.455 167.232 217.174L166.349 211.458L163.882 211.839L163.523 209.515L165.989 209.134L165.48 205.837L168.089 205.433L168.598 208.73L171.99 208.206L172.349 210.53L168.958 211.055L169.775 216.344C169.888 217.071 170.127 217.569 170.492 217.836C170.854 218.087 171.384 218.159 172.079 218.052C172.649 217.964 173.103 217.813 173.442 217.598L173.801 219.923C173.259 220.185 172.624 220.372 171.897 220.484ZM176.298 219.683L173.548 201.894L176.157 201.491L178.907 219.279L176.298 219.683ZM181.484 204.091C181.01 204.164 180.573 204.062 180.174 203.784C179.772 203.49 179.533 203.097 179.457 202.607C179.384 202.133 179.496 201.703 179.792 201.317C180.086 200.915 180.471 200.678 180.945 200.605C181.435 200.529 181.873 200.639 182.259 200.936C182.642 201.216 182.871 201.594 182.944 202.068C183.02 202.558 182.919 203.003 182.64 203.402C182.36 203.786 181.974 204.015 181.484 204.091ZM182.413 218.737L180.579 206.878L183.188 206.475L185.022 218.334L182.413 218.737ZM192.739 217.384C191.331 217.601 190.092 217.437 189.019 216.89C187.963 216.341 187.313 215.486 187.069 214.326L189.773 213.908C190.143 215.049 191.048 215.508 192.487 215.285C193.072 215.195 193.523 215.02 193.839 214.761C194.152 214.486 194.277 214.143 194.214 213.731C194.15 213.32 193.966 213.017 193.66 212.821C193.355 212.626 192.874 212.498 192.217 212.437L190.191 212.216C188.084 211.991 186.887 210.954 186.601 209.104C186.447 208.108 186.727 207.247 187.441 206.522C188.152 205.78 189.171 205.307 190.5 205.102C191.78 204.904 192.882 205.065 193.805 205.586C194.727 206.107 195.319 206.898 195.58 207.959L192.971 208.362C192.566 207.421 191.842 207.031 190.799 207.192C190.277 207.273 189.875 207.449 189.593 207.719C189.308 207.973 189.196 208.29 189.254 208.67C189.359 209.35 189.962 209.742 191.063 209.847L193.136 210.061C195.323 210.273 196.559 211.305 196.845 213.155C197.018 214.277 196.718 215.214 195.943 215.965C195.182 216.698 194.114 217.171 192.739 217.384ZM204.926 215.378C203.725 215.564 202.693 215.383 201.831 214.837C200.983 214.272 200.46 213.349 200.262 212.068L199.378 206.352L196.911 206.733L196.552 204.409L199.019 204.027L198.509 200.731L201.118 200.327L201.628 203.624L205.02 203.1L205.379 205.424L201.987 205.948L202.805 211.238C202.917 211.965 203.156 212.462 203.521 212.73C203.884 212.981 204.413 213.053 205.109 212.946C205.678 212.858 206.132 212.706 206.472 212.492L206.831 214.816C206.289 215.078 205.654 215.266 204.926 215.378ZM229.899 211.396L227.48 211.77L216.119 201.117L217.993 213.237L215.218 213.666L212.614 196.826L215.033 196.452L226.367 207.085L224.497 194.989L227.296 194.556L229.899 211.396ZM243.019 207.789C242.017 209.158 240.638 209.979 238.883 210.25C237.127 210.521 235.557 210.157 234.172 209.157C232.8 208.138 231.981 206.767 231.715 205.044C231.449 203.32 231.817 201.774 232.819 200.405C233.835 199.017 235.221 198.188 236.976 197.916C238.731 197.645 240.294 198.019 241.666 199.037C243.051 200.037 243.877 201.399 244.143 203.122C244.41 204.846 244.035 206.401 243.019 207.789ZM238.508 207.831C239.536 207.672 240.327 207.185 240.881 206.371C241.449 205.538 241.651 204.593 241.487 203.533C241.323 202.474 240.846 201.641 240.056 201.034C239.28 200.41 238.378 200.177 237.35 200.336C236.306 200.497 235.501 200.994 234.933 201.826C234.379 202.641 234.184 203.577 234.348 204.637C234.511 205.696 234.982 206.538 235.758 207.163C236.548 207.769 237.465 207.992 238.508 207.831ZM257.695 207.099L253.902 199.841L252.501 207.902L250.034 208.283L244.216 197.04L246.968 196.614L250.794 204.401L252.257 195.797L254.249 195.489L258.194 203.257L259.538 194.671L262.313 194.242L260.162 206.717L257.695 207.099Z" fill="white"/>
</svg>
