<svg width="368" height="310" viewBox="0 0 368 310" fill="none" xmlns="http://www.w3.org/2000/svg">
<rect x="40.0371" width="331.4" height="262" rx="16" transform="rotate(8.79 40.0371 0)" fill="white"/>
<path d="M76.4795 87.0714C74.0813 86.7005 72.1996 85.6945 70.8344 84.0533C69.4732 82.3857 68.9862 80.3001 69.3733 77.7965L73.0101 78.3589C72.7901 79.782 73.0649 80.9713 73.8346 81.9268C74.6306 82.8863 75.6743 83.466 76.9656 83.6657C78.3097 83.8735 79.4817 83.623 80.4818 82.9141C81.4818 82.2053 82.1204 80.9549 82.3975 79.1628L85.4782 59.2396L89.115 59.802L85.9732 80.1205C85.5453 82.8876 84.448 84.8361 82.6812 85.9661C80.9185 87.0697 78.8513 87.4381 76.4795 87.0714ZM98.885 90.455C95.907 89.9945 93.5826 88.6232 91.9117 86.341C90.2713 84.0366 89.6731 81.4482 90.1173 78.5756C90.5615 75.7031 91.9115 73.4294 94.1672 71.7544C96.4535 70.0572 99.0855 69.4388 102.063 69.8993C105.015 70.3557 107.311 71.7361 108.952 74.0405C110.622 76.3226 111.236 78.8999 110.792 81.7725C110.347 84.645 108.982 86.9299 106.696 88.6271C104.44 90.3021 101.837 90.9114 98.885 90.455ZM94.711 84.4668C95.7904 86.0368 97.3447 86.9788 99.374 87.2925C101.403 87.6063 103.156 87.1758 104.633 86.001C106.11 84.8263 107.003 83.2374 107.313 81.2346C107.623 79.2317 107.251 77.4473 106.198 75.8813C105.145 74.3153 103.604 73.3754 101.574 73.0617C99.5453 72.7479 97.779 73.1764 96.2758 74.3471C94.7989 75.5218 93.9057 77.1107 93.596 79.1135C93.2863 81.1164 93.6579 82.9008 94.711 84.4668ZM120.573 67.0544C120.056 67.4331 119.455 67.5695 118.77 67.4636C118.085 67.3576 117.539 67.044 117.134 66.5226C116.733 65.9749 116.586 65.3585 116.692 64.6733C116.794 64.0144 117.118 63.4845 117.666 63.0835C118.214 62.6825 118.83 62.5349 119.515 62.6409C120.201 62.7468 120.731 63.0716 121.105 63.6153C121.48 64.1589 121.616 64.7602 121.514 65.419C121.408 66.1042 121.095 66.6493 120.573 67.0544ZM113.155 92.2568L116.211 72.4917L119.611 73.0174L116.555 92.7825L113.155 92.2568ZM122.011 93.6261L125.067 73.861L128.467 74.3867L127.996 77.4305C129.694 75.3456 131.967 74.5232 134.813 74.9633C137.053 75.3097 138.746 76.3135 139.892 77.9749C141.039 79.6362 141.424 81.6791 141.049 84.1037L139.167 96.279L135.807 95.7594L137.61 84.098C137.867 82.4377 137.647 81.068 136.95 79.9889C136.258 78.8834 135.2 78.2207 133.777 78.0006C132.143 77.748 130.673 78.1817 129.366 79.3019C128.086 80.4261 127.273 82.1083 126.926 84.3483L125.41 94.1518L122.011 93.6261ZM159.829 99.6764C158.011 99.3952 156.628 98.6552 155.68 97.4562C154.732 96.2573 154.411 94.6696 154.716 92.6931L156.385 81.9013L152.195 81.2534L152.678 78.1305L156.868 78.7784L157.718 73.2837L161.117 73.8094L160.268 79.3041L165.96 80.1843L165.477 83.3072L159.785 82.427L158.183 92.7839C157.992 94.0225 158.121 94.9329 158.571 95.5151C159.02 96.0974 159.812 96.4761 160.945 96.6513C161.946 96.8062 162.77 96.7987 163.417 96.6289L162.947 99.6727C161.949 99.8422 160.91 99.8435 159.829 99.6764ZM169.658 100.994L166.258 100.468L170.843 70.8205L174.242 71.3461L172.243 84.2725C173.942 82.1876 176.214 81.3652 179.061 81.8053C181.301 82.1517 182.994 83.1555 184.14 84.8169C185.286 86.4782 185.672 88.5211 185.297 90.9456L183.414 103.121L180.054 102.601L181.858 90.94C182.114 89.2797 181.894 87.91 181.198 86.8309C180.505 85.7254 179.447 85.0626 178.024 84.8426C176.39 84.5899 174.92 85.0237 173.614 86.1439C172.333 87.2681 171.52 88.9503 171.174 91.1903L169.658 100.994ZM196.907 105.612C194.034 105.168 191.8 103.824 190.204 101.58C188.635 99.341 188.078 96.7454 188.535 93.7938C188.995 90.8159 190.283 88.5056 192.399 86.863C194.545 85.1981 197.134 84.5999 200.164 85.0686C203.221 85.5413 205.453 86.9926 206.858 89.4225C208.263 91.8525 208.618 94.6192 207.922 97.7226L191.833 95.2348C191.609 97.035 192.035 98.639 193.113 100.047C194.194 101.428 195.631 102.258 197.423 102.535C200.111 102.95 202.193 102.139 203.669 100.101L207.147 100.638C206.361 102.406 205.058 103.769 203.236 104.729C201.415 105.688 199.305 105.983 196.907 105.612ZM203.275 90.0827C202.341 88.9669 201.11 88.2909 199.581 88.0545C198.053 87.8182 196.611 88.0674 195.256 88.8024C193.928 89.5414 192.978 90.7976 192.407 92.5712L204.74 94.4783C204.701 92.6374 204.213 91.1722 203.275 90.0827ZM225.981 109.905C224.162 109.624 222.779 108.884 221.831 107.685C220.883 106.486 220.562 104.899 220.868 102.922L222.537 92.1302L218.346 91.4823L218.829 88.3594L223.019 89.0074L223.869 83.5127L227.269 84.0383L226.419 89.533L232.111 90.4132L231.628 93.5361L225.936 92.6559L224.335 103.013C224.143 104.251 224.272 105.162 224.722 105.744C225.171 106.326 225.963 106.705 227.096 106.88C228.098 107.035 228.922 107.028 229.569 106.858L229.098 109.902C228.1 110.071 227.061 110.072 225.981 109.905ZM232.41 110.697L235.466 90.932L238.865 91.4576L238.273 95.2921C238.829 94.1368 239.691 93.2718 240.86 92.6969C242.054 92.1261 243.244 91.9324 244.43 92.1157C245.01 92.2054 245.516 92.3376 245.948 92.5122L245.403 96.0304C244.962 95.7463 244.359 95.5451 243.594 95.4269C242.224 95.215 240.92 95.6205 239.683 96.6434C238.445 97.6663 237.659 99.2583 237.325 101.419L235.809 111.223L232.41 110.697ZM253.316 87.5803C252.799 87.9591 252.198 88.0955 251.512 87.9895C250.827 87.8836 250.282 87.5699 249.877 87.0486C249.476 86.5008 249.328 85.8844 249.434 85.1992C249.536 84.5404 249.861 84.0104 250.409 83.6094C250.957 83.2084 251.573 83.0609 252.258 83.1668C252.943 83.2728 253.473 83.5976 253.848 84.1412C254.223 84.6849 254.359 85.2861 254.257 85.9449C254.151 86.6301 253.838 87.1753 253.316 87.5803ZM245.898 112.783L248.954 93.0176L252.354 93.5433L249.297 113.308L245.898 112.783ZM265.049 116.149C263.6 115.925 262.291 115.399 261.124 114.571C259.988 113.72 259.154 112.741 258.624 111.634L258.153 114.678L254.753 114.152L259.338 84.5044L262.737 85.0301L260.739 97.9565C261.579 97.061 262.667 96.3928 264.003 95.9518C265.37 95.4886 266.778 95.369 268.228 95.5931C270.969 96.0169 273.106 97.3729 274.641 99.661C276.203 101.953 276.763 104.522 276.323 107.369C275.883 110.215 274.573 112.495 272.392 114.208C270.238 115.926 267.79 116.573 265.049 116.149ZM260.513 110.145C261.566 111.711 263.068 112.645 265.018 112.947C266.968 113.248 268.682 112.811 270.159 111.637C271.636 110.462 272.531 108.86 272.845 106.831C273.159 104.801 272.789 103.004 271.736 101.438C270.683 99.8719 269.181 98.9381 267.231 98.6366C265.281 98.335 263.567 98.7716 262.09 99.9464C260.614 101.121 259.718 102.723 259.404 104.752C259.091 106.782 259.46 108.579 260.513 110.145ZM287.023 119.547C284.151 119.103 281.917 117.759 280.321 115.515C278.751 113.276 278.195 110.68 278.651 107.728C279.112 104.751 280.4 102.44 282.516 100.798C284.662 99.1327 287.25 98.5346 290.281 99.0032C293.338 99.4759 295.569 100.927 296.974 103.357C298.379 105.787 298.734 108.554 298.038 111.657L281.95 109.169C281.725 110.97 282.152 112.574 283.229 113.982C284.311 115.363 285.748 116.192 287.54 116.469C290.228 116.885 292.31 116.074 293.785 114.035L297.264 114.573C296.478 116.34 295.174 117.704 293.353 118.664C291.531 119.623 289.422 119.918 287.023 119.547ZM293.391 104.017C292.457 102.902 291.226 102.226 289.698 101.989C288.169 101.753 286.728 102.002 285.373 102.737C284.044 103.476 283.094 104.732 282.523 106.506L294.857 108.413C294.818 106.572 294.329 105.107 293.391 104.017Z" fill="#050401"/>
<path d="M72.106 123.693L71.8523 125.333L62.7604 123.927L62.8643 123.255C62.9397 122.768 63.0835 122.318 63.2957 121.905C63.5231 121.482 63.7524 121.133 63.9838 120.858C64.2151 120.584 64.5569 120.293 65.0093 119.985C65.4637 119.664 65.8161 119.435 66.0666 119.298C66.3191 119.148 66.7375 118.93 67.3216 118.642C67.9077 118.342 68.2956 118.145 68.4853 118.053C69.5268 117.513 70.2611 117.039 70.6882 116.633C71.1304 116.216 71.4107 115.625 71.5289 114.861C71.643 114.123 71.4965 113.5 71.0893 112.992C70.6842 112.47 70.0996 112.151 69.3353 112.032C68.5315 111.908 67.8087 112.046 67.1667 112.446C66.5247 112.846 66.1364 113.481 66.002 114.35L64.2626 114.081C64.4664 112.764 65.0663 111.764 66.0623 111.081C67.0714 110.401 68.2414 110.163 69.5723 110.369C70.8109 110.561 71.7837 111.075 72.4906 111.913C73.2107 112.753 73.4689 113.832 73.2651 115.15C73.1103 116.151 72.7341 116.97 72.1365 117.606C71.541 118.229 70.584 118.877 69.2657 119.55C69.0172 119.674 68.6664 119.849 68.2131 120.075C67.7618 120.289 67.4109 120.464 67.1604 120.601C66.9099 120.737 66.627 120.909 66.3116 121.117C66.0113 121.313 65.7608 121.538 65.5599 121.79C65.3742 122.031 65.2239 122.305 65.1092 122.611L72.106 123.693ZM80.3502 126.647L80.9401 122.833L73.4689 121.677L73.6798 120.314L82.7376 112.648L84.22 112.877L82.8875 121.494L84.8244 121.794L84.5769 123.395L82.6399 123.095L82.05 126.91L80.3502 126.647ZM75.9301 120.419L81.1877 121.232L82.1229 115.184L75.9301 120.419ZM90.8582 128.474C89.3956 128.248 88.2785 127.576 87.5069 126.459C86.7373 125.328 86.4727 123.985 86.7132 122.43L87.3183 118.517C87.5587 116.962 88.2155 115.768 89.2887 114.936C90.377 114.092 91.6459 113.782 93.0954 114.006C94.5448 114.231 95.6609 114.909 96.4436 116.042C97.2264 117.175 97.4985 118.512 97.2602 120.054L96.655 123.967C96.4146 125.522 95.7502 126.721 94.6618 127.565C93.5755 128.395 92.3076 128.699 90.8582 128.474ZM91.1149 126.814C92.09 126.965 92.9305 126.764 93.6365 126.212C94.3425 125.661 94.782 124.825 94.9552 123.705L95.5604 119.791C95.7335 118.671 95.567 117.741 95.0607 117.002C94.5544 116.263 93.8137 115.817 92.8387 115.667C91.8767 115.518 91.0428 115.72 90.3368 116.271C89.6309 116.823 89.1913 117.659 89.0181 118.779L88.413 122.693C88.2398 123.813 88.4063 124.743 88.9126 125.482C89.4189 126.221 90.153 126.665 91.1149 126.814ZM103.173 130.379C101.71 130.153 100.593 129.481 99.8215 128.363C99.0519 127.232 98.7873 125.889 99.0278 124.334L99.6329 120.421C99.8733 118.866 100.53 117.672 101.603 116.84C102.692 115.996 103.961 115.686 105.41 115.911C106.859 116.135 107.975 116.813 108.758 117.946C109.541 119.079 109.813 120.416 109.575 121.958L108.97 125.872C108.729 127.426 108.065 128.626 106.976 129.469C105.89 130.3 104.622 130.603 103.173 130.379ZM103.43 128.718C104.405 128.869 105.245 128.669 105.951 128.117C106.657 127.565 107.097 126.729 107.27 125.609L107.875 121.695C108.048 120.575 107.882 119.646 107.375 118.906C106.869 118.167 106.128 117.722 105.153 117.571C104.191 117.422 103.357 117.624 102.651 118.176C101.945 118.728 101.506 119.564 101.333 120.684L100.728 124.597C100.554 125.717 100.721 126.647 101.227 127.386C101.734 128.126 102.468 128.57 103.43 128.718ZM110.889 126.29L111.125 124.768L114.544 125.297L115.07 121.897L116.611 122.135L116.086 125.535L119.485 126.061L119.25 127.583L115.85 127.057L115.325 130.457L113.783 130.218L114.309 126.819L110.889 126.29ZM129.008 124.052L127.278 135.239C127.125 136.228 126.733 136.936 126.1 137.364C125.467 137.793 124.709 137.938 123.826 137.802C123.523 137.755 123.256 137.694 123.025 137.617L123.26 136.095C123.467 136.154 123.656 136.197 123.827 136.224C124.842 136.381 125.436 135.899 125.609 134.779L127.308 123.79L129.008 124.052ZM129.489 121.071C129.231 121.26 128.93 121.328 128.588 121.275C128.245 121.222 127.972 121.066 127.77 120.805C127.569 120.531 127.496 120.223 127.549 119.88C127.599 119.551 127.762 119.286 128.036 119.085C128.31 118.885 128.618 118.811 128.96 118.864C129.303 118.917 129.568 119.079 129.755 119.351C129.943 119.623 130.011 119.924 129.96 120.253C129.907 120.596 129.75 120.868 129.489 121.071ZM135.056 135.309C133.567 135.078 132.405 134.393 131.569 133.252C130.749 132.1 130.45 130.805 130.672 129.369C130.894 127.933 131.569 126.796 132.697 125.958C133.84 125.11 135.156 124.801 136.645 125.031C138.121 125.259 139.269 125.949 140.089 127.101C140.924 128.243 141.231 129.531 141.009 130.967C140.787 132.404 140.104 133.546 138.961 134.395C137.833 135.232 136.532 135.537 135.056 135.309ZM132.969 132.315C133.508 133.1 134.286 133.571 135.3 133.728C136.315 133.884 137.191 133.669 137.93 133.082C138.668 132.494 139.115 131.7 139.27 130.699C139.425 129.697 139.239 128.805 138.712 128.022C138.186 127.239 137.415 126.769 136.4 126.612C135.386 126.455 134.503 126.669 133.751 127.255C133.013 127.842 132.566 128.637 132.411 129.638C132.256 130.639 132.442 131.532 132.969 132.315ZM146.394 123.685C146.135 123.874 145.835 123.942 145.492 123.889C145.15 123.836 144.877 123.68 144.675 123.419C144.474 123.145 144.4 122.837 144.453 122.494C144.504 122.165 144.667 121.9 144.94 121.699C145.214 121.499 145.523 121.425 145.865 121.478C146.208 121.531 146.473 121.693 146.66 121.965C146.847 122.237 146.916 122.538 146.865 122.867C146.812 123.21 146.655 123.482 146.394 123.685ZM142.685 136.286L144.213 126.403L145.913 126.666L144.385 136.549L142.685 136.286ZM147.607 137.047L149.135 127.165L150.835 127.427L150.599 128.949C151.449 127.907 152.585 127.496 154.008 127.716C155.128 127.889 155.975 128.391 156.548 129.221C157.121 130.052 157.314 131.074 157.126 132.286L156.185 138.374L154.505 138.114L155.406 132.283C155.535 131.453 155.425 130.768 155.077 130.229C154.73 129.676 154.201 129.344 153.49 129.234C152.673 129.108 151.938 129.325 151.285 129.885C150.644 130.447 150.238 131.288 150.065 132.408L149.307 137.31L147.607 137.047ZM163.425 139.695C161.989 139.473 160.872 138.801 160.074 137.68C159.289 136.56 159.011 135.262 159.239 133.786C159.469 132.297 160.113 131.142 161.171 130.321C162.245 129.489 163.539 129.189 165.054 129.424C166.583 129.66 167.698 130.386 168.401 131.601C169.103 132.816 169.281 134.199 168.933 135.751L160.888 134.507C160.776 135.407 160.989 136.209 161.528 136.913C162.069 137.604 162.787 138.018 163.683 138.157C165.027 138.365 166.068 137.959 166.806 136.94L168.545 137.209C168.152 138.092 167.501 138.774 166.59 139.254C165.679 139.734 164.624 139.881 163.425 139.695ZM166.609 131.931C166.142 131.373 165.527 131.035 164.763 130.917C163.998 130.799 163.277 130.923 162.6 131.291C161.936 131.66 161.461 132.288 161.175 133.175L167.342 134.129C167.322 133.208 167.078 132.476 166.609 131.931ZM174.733 141.444C173.363 141.232 172.287 140.553 171.506 139.407C170.739 138.263 170.465 136.979 170.685 135.556C170.905 134.133 171.554 132.992 172.631 132.133C173.721 131.277 174.952 130.954 176.322 131.166C177.047 131.278 177.693 131.547 178.262 131.972C178.845 132.386 179.27 132.87 179.535 133.424L180.534 126.96L182.234 127.223L179.942 142.047L178.242 141.784L178.477 140.262C178.057 140.71 177.506 141.05 176.822 141.281C176.154 141.502 175.458 141.556 174.733 141.444ZM175.231 139.922C176.206 140.073 177.063 139.855 177.802 139.267C178.54 138.68 178.988 137.879 179.145 136.864C179.301 135.85 179.117 134.951 178.59 134.168C178.064 133.385 177.313 132.918 176.338 132.767C175.349 132.614 174.486 132.832 173.748 133.419C173.009 134.007 172.562 134.808 172.405 135.822C172.248 136.837 172.433 137.736 172.959 138.519C173.486 139.302 174.243 139.769 175.231 139.922Z" fill="#FF1414"/>
<rect x="56.9509" y="152.374" width="251.4" height="74" rx="16" transform="rotate(8.79 56.9509 152.374)" fill="#C700FE"/>
<path d="M118.218 208.394L115.896 197.495L110.391 207.184L107.829 206.788L106.093 189.277L109.01 189.728L110.177 202.439L116.952 190.664L119.831 203.932L124.807 192.17L127.748 192.625L120.78 208.79L118.218 208.394ZM131.39 210.674C129.778 210.424 128.511 209.613 127.59 208.24C126.684 206.87 126.364 205.331 126.628 203.623C126.892 201.915 127.662 200.545 128.939 199.512C130.232 198.481 131.685 198.091 133.298 198.34C134.104 198.465 134.819 198.762 135.443 199.231C136.069 199.684 136.525 200.191 136.81 200.753L137.056 199.164L139.665 199.568L137.831 211.427L135.222 211.023L135.468 209.434C135.026 209.884 134.437 210.238 133.701 210.497C132.967 210.739 132.197 210.798 131.39 210.674ZM129.862 206.892C130.414 207.722 131.204 208.216 132.232 208.375C133.259 208.534 134.162 208.301 134.938 207.677C135.715 207.052 136.186 206.202 136.352 205.127C136.519 204.052 136.326 203.099 135.774 202.269C135.223 201.439 134.433 200.944 133.405 200.785C132.377 200.626 131.475 200.859 130.699 201.484C129.922 202.109 129.451 202.959 129.284 204.034C129.118 205.109 129.311 206.062 129.862 206.892ZM144.904 197.731C144.429 197.657 144.044 197.428 143.747 197.042C143.453 196.64 143.344 196.194 143.42 195.704C143.493 195.23 143.729 194.853 144.129 194.575C144.53 194.281 144.968 194.171 145.443 194.244C145.933 194.32 146.317 194.557 146.595 194.957C146.876 195.34 146.98 195.769 146.906 196.243C146.831 196.733 146.6 197.127 146.214 197.423C145.831 197.704 145.394 197.806 144.904 197.731ZM141.366 211.973L143.199 200.114L145.808 200.518L143.975 212.377L141.366 211.973ZM152.609 213.833C151.407 213.647 150.478 213.164 149.822 212.382C149.184 211.587 148.964 210.55 149.162 209.269L150.046 203.553L147.579 203.171L147.938 200.847L150.405 201.228L150.915 197.932L153.524 198.335L153.014 201.632L156.406 202.156L156.046 204.481L152.655 203.956L151.837 209.245C151.724 209.973 151.802 210.519 152.069 210.884C152.339 211.233 152.822 211.462 153.517 211.569C154.087 211.658 154.565 211.651 154.954 211.549L154.594 213.873C153.998 213.959 153.336 213.946 152.609 213.833ZM157.046 214.398L159.797 196.609L162.406 197.013L159.655 214.801L157.046 214.398ZM166.699 201.101C166.225 201.028 165.839 200.798 165.543 200.412C165.249 200.01 165.14 199.565 165.215 199.074C165.289 198.6 165.525 198.224 165.924 197.945C166.326 197.651 166.764 197.541 167.238 197.614C167.729 197.69 168.113 197.928 168.391 198.327C168.672 198.71 168.775 199.139 168.702 199.613C168.626 200.104 168.395 200.497 168.01 200.794C167.626 201.074 167.189 201.177 166.699 201.101ZM163.161 215.344L164.995 203.484L167.604 203.888L165.77 215.747L163.161 215.344ZM173.414 217.172C172.006 216.954 170.874 216.423 170.017 215.578C169.176 214.736 168.815 213.724 168.932 212.545L171.636 212.963C171.645 214.162 172.369 214.873 173.808 215.096C174.393 215.186 174.875 215.155 175.255 215.004C175.637 214.836 175.86 214.547 175.923 214.136C175.987 213.724 175.902 213.379 175.67 213.101C175.438 212.822 175.018 212.555 174.41 212.299L172.546 211.476C170.605 210.626 169.778 209.275 170.064 207.425C170.218 206.429 170.745 205.693 171.644 205.217C172.546 204.725 173.661 204.582 174.989 204.787C176.27 204.985 177.271 205.472 177.993 206.247C178.715 207.023 179.04 207.955 178.969 209.045L176.36 208.642C176.258 207.622 175.686 207.032 174.642 206.87C174.121 206.79 173.684 206.836 173.334 207.008C172.986 207.165 172.783 207.433 172.724 207.812C172.619 208.492 173.075 209.049 174.093 209.481L176.005 210.311C178.024 211.174 178.891 212.53 178.605 214.38C178.432 215.503 177.862 216.305 176.897 216.788C175.951 217.256 174.789 217.384 173.414 217.172ZM185.638 218.941C184.436 218.755 183.507 218.271 182.851 217.49C182.213 216.695 181.993 215.657 182.191 214.376L183.075 208.66L180.608 208.279L180.968 205.954L183.435 206.336L183.944 203.039L186.553 203.442L186.044 206.739L189.435 207.264L189.076 209.588L185.684 209.064L184.866 214.353C184.754 215.08 184.831 215.626 185.099 215.991C185.368 216.341 185.851 216.569 186.547 216.677C187.116 216.765 187.595 216.758 187.983 216.656L187.623 218.98C187.027 219.066 186.366 219.053 185.638 218.941ZM210.648 222.686L208.228 222.312L200.615 208.725L198.741 220.845L195.966 220.416L198.57 203.576L200.989 203.95L208.582 217.51L210.453 205.414L213.252 205.846L210.648 222.686ZM224.244 223.21C222.875 224.213 221.313 224.578 219.558 224.307C217.802 224.036 216.416 223.214 215.397 221.842C214.397 220.457 214.03 218.903 214.297 217.179C214.563 215.456 215.381 214.093 216.751 213.09C218.138 212.074 219.71 211.702 221.465 211.973C223.22 212.245 224.597 213.073 225.597 214.458C226.616 215.83 226.992 217.378 226.725 219.101C226.459 220.825 225.632 222.194 224.244 223.21ZM219.932 221.888C220.959 222.047 221.86 221.822 222.635 221.213C223.427 220.591 223.905 219.75 224.069 218.69C224.233 217.631 224.03 216.693 223.46 215.876C222.908 215.046 222.118 214.552 221.091 214.393C220.047 214.231 219.129 214.462 218.337 215.084C217.562 215.693 217.093 216.527 216.93 217.586C216.766 218.646 216.96 219.591 217.511 220.421C218.081 221.237 218.888 221.726 219.932 221.888ZM238.444 226.984L237.019 218.92L233.249 226.181L230.783 225.8L228.632 213.325L231.383 213.75L232.679 222.329L236.672 214.568L238.665 214.876L240.079 223.473L243.954 215.694L246.729 216.123L240.91 227.366L238.444 226.984Z" fill="white"/>
</svg>
