<svg width="423" height="318" viewBox="0 0 423 318" fill="none" xmlns="http://www.w3.org/2000/svg">
<rect x="40.7871" width="386" height="262" rx="16" transform="rotate(8.79 40.7871 0)" fill="white"/>
<path d="M77.2295 87.0714C74.8313 86.7005 72.9496 85.6945 71.5844 84.0533C70.2232 82.3857 69.7362 80.3001 70.1233 77.7965L73.7601 78.3589C73.5401 79.782 73.8149 80.9713 74.5846 81.9268C75.3806 82.8863 76.4243 83.466 77.7156 83.6657C79.0597 83.8735 80.2317 83.623 81.2318 82.9141C82.2318 82.2053 82.8704 80.9549 83.1475 79.1628L86.2282 59.2396L89.865 59.802L86.7232 80.1205C86.2953 82.8876 85.198 84.8361 83.4312 85.9661C81.6685 87.0697 79.6013 87.4381 77.2295 87.0714ZM99.635 90.455C96.657 89.9945 94.3326 88.6232 92.6617 86.341C91.0213 84.0366 90.4231 81.4482 90.8673 78.5756C91.3115 75.7031 92.6615 73.4294 94.9172 71.7544C97.2035 70.0572 99.8355 69.4388 102.813 69.8993C105.765 70.3557 108.061 71.7361 109.702 74.0405C111.372 76.3226 111.986 78.8999 111.542 81.7725C111.097 84.645 109.732 86.9299 107.446 88.6271C105.19 90.3021 102.587 90.9114 99.635 90.455ZM95.461 84.4668C96.5404 86.0368 98.0947 86.9788 100.124 87.2925C102.153 87.6063 103.906 87.1758 105.383 86.001C106.86 84.8263 107.753 83.2374 108.063 81.2346C108.373 79.2317 108.001 77.4473 106.948 75.8813C105.895 74.3153 104.354 73.3754 102.324 73.0617C100.295 72.7479 98.529 73.1764 97.0258 74.3471C95.5489 75.5218 94.6557 77.1107 94.346 79.1135C94.0363 81.1164 94.4079 82.9008 95.461 84.4668ZM121.323 67.0544C120.806 67.4331 120.205 67.5695 119.52 67.4636C118.835 67.3576 118.289 67.044 117.884 66.5226C117.483 65.9749 117.336 65.3585 117.442 64.6733C117.544 64.0144 117.868 63.4845 118.416 63.0835C118.964 62.6825 119.58 62.5349 120.265 62.6409C120.951 62.7468 121.481 63.0716 121.855 63.6153C122.23 64.1589 122.366 64.7602 122.264 65.419C122.158 66.1042 121.845 66.6493 121.323 67.0544ZM113.905 92.2568L116.961 72.4917L120.361 73.0174L117.305 92.7825L113.905 92.2568ZM122.761 93.6261L125.817 73.861L129.217 74.3867L128.746 77.4305C130.444 75.3456 132.717 74.5232 135.563 74.9633C137.803 75.3097 139.496 76.3135 140.642 77.9749C141.789 79.6362 142.174 81.6791 141.799 84.1037L139.917 96.279L136.557 95.7594L138.36 84.098C138.617 82.4377 138.397 81.068 137.7 79.9889C137.008 78.8834 135.95 78.2207 134.527 78.0006C132.893 77.748 131.423 78.1817 130.116 79.3019C128.836 80.4261 128.023 82.1083 127.676 84.3483L126.16 94.1518L122.761 93.6261ZM160.579 99.6764C158.761 99.3952 157.378 98.6552 156.43 97.4562C155.482 96.2573 155.161 94.6696 155.466 92.6931L157.135 81.9013L152.945 81.2534L153.428 78.1305L157.618 78.7784L158.468 73.2837L161.867 73.8094L161.018 79.3041L166.71 80.1843L166.227 83.3072L160.535 82.427L158.933 92.7839C158.742 94.0225 158.871 94.9329 159.321 95.5151C159.77 96.0974 160.562 96.4761 161.695 96.6513C162.696 96.8062 163.52 96.7987 164.167 96.6289L163.697 99.6727C162.699 99.8422 161.66 99.8435 160.579 99.6764ZM170.408 100.994L167.008 100.468L171.593 70.8205L174.992 71.3461L172.993 84.2725C174.692 82.1876 176.964 81.3652 179.811 81.8053C182.051 82.1517 183.744 83.1555 184.89 84.8169C186.036 86.4782 186.422 88.5211 186.047 90.9456L184.164 103.121L180.804 102.601L182.608 90.94C182.864 89.2797 182.644 87.91 181.948 86.8309C181.255 85.7254 180.197 85.0626 178.774 84.8426C177.14 84.5899 175.67 85.0237 174.364 86.1439C173.083 87.2681 172.27 88.9503 171.924 91.1903L170.408 100.994ZM197.657 105.612C194.784 105.168 192.55 103.824 190.954 101.58C189.385 99.341 188.828 96.7454 189.285 93.7938C189.745 90.8159 191.033 88.5056 193.149 86.863C195.295 85.1981 197.884 84.5999 200.914 85.0686C203.971 85.5413 206.203 86.9926 207.608 89.4225C209.013 91.8525 209.368 94.6192 208.672 97.7226L192.583 95.2348C192.359 97.035 192.785 98.639 193.863 100.047C194.944 101.428 196.381 102.258 198.173 102.535C200.861 102.95 202.943 102.139 204.419 100.101L207.897 100.638C207.111 102.406 205.808 103.769 203.986 104.729C202.165 105.688 200.055 105.983 197.657 105.612ZM204.025 90.0827C203.091 88.9669 201.86 88.2909 200.331 88.0545C198.803 87.8182 197.361 88.0674 196.006 88.8024C194.678 89.5414 193.728 90.7976 193.157 92.5712L205.49 94.4783C205.451 92.6374 204.963 91.1722 204.025 90.0827ZM226.731 109.905C224.912 109.624 223.529 108.884 222.581 107.685C221.633 106.486 221.312 104.899 221.618 102.922L223.287 92.1302L219.096 91.4823L219.579 88.3594L223.769 89.0074L224.619 83.5127L228.019 84.0383L227.169 89.533L232.861 90.4132L232.378 93.5361L226.686 92.6559L225.085 103.013C224.893 104.251 225.022 105.162 225.472 105.744C225.921 106.326 226.713 106.705 227.846 106.88C228.848 107.035 229.672 107.028 230.319 106.858L229.848 109.902C228.85 110.071 227.811 110.072 226.731 109.905ZM233.16 110.697L236.216 90.932L239.615 91.4576L239.023 95.2921C239.579 94.1368 240.441 93.2718 241.61 92.6969C242.804 92.1261 243.994 91.9324 245.18 92.1157C245.76 92.2054 246.266 92.3376 246.698 92.5122L246.153 96.0304C245.712 95.7463 245.109 95.5451 244.344 95.4269C242.974 95.215 241.67 95.6205 240.433 96.6434C239.195 97.6663 238.409 99.2583 238.075 101.419L236.559 111.223L233.16 110.697ZM254.066 87.5803C253.549 87.9591 252.948 88.0955 252.262 87.9895C251.577 87.8836 251.032 87.5699 250.627 87.0486C250.226 86.5008 250.078 85.8844 250.184 85.1992C250.286 84.5404 250.611 84.0104 251.159 83.6094C251.707 83.2084 252.323 83.0609 253.008 83.1668C253.693 83.2728 254.223 83.5976 254.598 84.1412C254.973 84.6849 255.109 85.2861 255.007 85.9449C254.901 86.6301 254.588 87.1753 254.066 87.5803ZM246.648 112.783L249.704 93.0176L253.104 93.5433L250.047 113.308L246.648 112.783ZM265.799 116.149C264.35 115.925 263.041 115.399 261.874 114.571C260.738 113.72 259.904 112.741 259.374 111.634L258.903 114.678L255.503 114.152L260.088 84.5044L263.487 85.0301L261.489 97.9565C262.329 97.061 263.417 96.3928 264.753 95.9518C266.12 95.4886 267.528 95.369 268.978 95.5931C271.719 96.0169 273.856 97.3729 275.391 99.661C276.953 101.953 277.513 104.522 277.073 107.369C276.633 110.215 275.323 112.495 273.142 114.208C270.988 115.926 268.54 116.573 265.799 116.149ZM261.263 110.145C262.316 111.711 263.818 112.645 265.768 112.947C267.718 113.248 269.432 112.811 270.909 111.637C272.386 110.462 273.281 108.86 273.595 106.831C273.909 104.801 273.539 103.004 272.486 101.438C271.433 99.8719 269.931 98.9381 267.981 98.6366C266.031 98.335 264.317 98.7716 262.84 99.9464C261.364 101.121 260.468 102.723 260.154 104.752C259.841 106.782 260.21 108.579 261.263 110.145ZM287.773 119.547C284.901 119.103 282.667 117.759 281.071 115.515C279.501 113.276 278.945 110.68 279.401 107.728C279.862 104.751 281.15 102.44 283.266 100.798C285.412 99.1327 288 98.5346 291.031 99.0032C294.088 99.4759 296.319 100.927 297.724 103.357C299.129 105.787 299.484 108.554 298.788 111.657L282.7 109.169C282.475 110.97 282.902 112.574 283.979 113.982C285.061 115.363 286.498 116.192 288.29 116.469C290.978 116.885 293.06 116.074 294.535 114.035L298.014 114.573C297.228 116.34 295.924 117.704 294.103 118.664C292.281 119.623 290.172 119.918 287.773 119.547ZM294.141 104.017C293.207 102.902 291.976 102.226 290.448 101.989C288.919 101.753 287.478 102.002 286.123 102.737C284.794 103.476 283.844 104.732 283.273 106.506L295.607 108.413C295.568 106.572 295.079 105.107 294.141 104.017Z" fill="#050401"/>
<path d="M72.856 123.693L72.6023 125.333L63.5104 123.927L63.6143 123.255C63.6897 122.768 63.8335 122.318 64.0457 121.905C64.2731 121.482 64.5024 121.133 64.7338 120.858C64.9651 120.584 65.3069 120.293 65.7593 119.985C66.2137 119.664 66.5661 119.435 66.8166 119.298C67.0691 119.148 67.4875 118.93 68.0716 118.642C68.6577 118.342 69.0456 118.145 69.2353 118.053C70.2768 117.513 71.0111 117.039 71.4382 116.633C71.8804 116.216 72.1607 115.625 72.2789 114.861C72.393 114.123 72.2465 113.5 71.8393 112.992C71.4342 112.47 70.8496 112.151 70.0853 112.032C69.2815 111.908 68.5587 112.046 67.9167 112.446C67.2747 112.846 66.8864 113.481 66.752 114.35L65.0126 114.081C65.2164 112.764 65.8163 111.764 66.8123 111.081C67.8214 110.401 68.9914 110.163 70.3223 110.369C71.5609 110.561 72.5337 111.075 73.2406 111.913C73.9607 112.753 74.2189 113.832 74.0151 115.15C73.8603 116.151 73.4841 116.97 72.8865 117.606C72.291 118.229 71.334 118.877 70.0157 119.55C69.7672 119.674 69.4164 119.849 68.9631 120.075C68.5118 120.289 68.1609 120.464 67.9104 120.601C67.6599 120.737 67.377 120.909 67.0616 121.117C66.7613 121.313 66.5108 121.538 66.3099 121.79C66.1242 122.031 65.9739 122.305 65.8592 122.611L72.856 123.693ZM81.1002 126.647L81.6901 122.833L74.2189 121.677L74.4298 120.314L83.4876 112.648L84.97 112.877L83.6375 121.494L85.5744 121.794L85.3269 123.395L83.3899 123.095L82.8 126.91L81.1002 126.647ZM76.6801 120.419L81.9377 121.232L82.8729 115.184L76.6801 120.419ZM91.6082 128.474C90.1456 128.248 89.0285 127.576 88.2569 126.459C87.4873 125.328 87.2227 123.985 87.4632 122.43L88.0683 118.517C88.3087 116.962 88.9655 115.768 90.0387 114.936C91.127 114.092 92.3959 113.782 93.8454 114.006C95.2948 114.231 96.4109 114.909 97.1936 116.042C97.9764 117.175 98.2485 118.512 98.0102 120.054L97.405 123.967C97.1646 125.522 96.5002 126.721 95.4118 127.565C94.3255 128.395 93.0576 128.699 91.6082 128.474ZM91.8649 126.814C92.84 126.965 93.6805 126.764 94.3865 126.212C95.0925 125.661 95.532 124.825 95.7052 123.705L96.3104 119.791C96.4835 118.671 96.317 117.741 95.8107 117.002C95.3044 116.263 94.5637 115.817 93.5887 115.667C92.6267 115.518 91.7928 115.72 91.0868 116.271C90.3809 116.823 89.9413 117.659 89.7681 118.779L89.163 122.693C88.9898 123.813 89.1563 124.743 89.6626 125.482C90.1689 126.221 90.903 126.665 91.8649 126.814ZM103.923 130.379C102.46 130.153 101.343 129.481 100.571 128.363C99.8019 127.232 99.5373 125.889 99.7778 124.334L100.383 120.421C100.623 118.866 101.28 117.672 102.353 116.84C103.442 115.996 104.711 115.686 106.16 115.911C107.609 116.135 108.725 116.813 109.508 117.946C110.291 119.079 110.563 120.416 110.325 121.958L109.72 125.872C109.479 127.426 108.815 128.626 107.726 129.469C106.64 130.3 105.372 130.603 103.923 130.379ZM104.18 128.718C105.155 128.869 105.995 128.669 106.701 128.117C107.407 127.565 107.847 126.729 108.02 125.609L108.625 121.695C108.798 120.575 108.632 119.646 108.125 118.906C107.619 118.167 106.878 117.722 105.903 117.571C104.941 117.422 104.107 117.624 103.401 118.176C102.695 118.728 102.256 119.564 102.083 120.684L101.478 124.597C101.304 125.717 101.471 126.647 101.977 127.386C102.484 128.126 103.218 128.57 104.18 128.718ZM111.639 126.29L111.875 124.768L115.294 125.297L115.82 121.897L117.361 122.135L116.836 125.535L120.235 126.061L120 127.583L116.6 127.057L116.075 130.457L114.533 130.218L115.059 126.819L111.639 126.29ZM129.758 124.052L128.028 135.239C127.875 136.228 127.483 136.936 126.85 137.364C126.217 137.793 125.459 137.938 124.576 137.802C124.273 137.755 124.006 137.694 123.775 137.617L124.01 136.095C124.217 136.154 124.406 136.197 124.577 136.224C125.592 136.381 126.186 135.899 126.359 134.779L128.058 123.79L129.758 124.052ZM130.239 121.071C129.981 121.26 129.68 121.328 129.338 121.275C128.995 121.222 128.722 121.066 128.52 120.805C128.319 120.531 128.246 120.223 128.299 119.88C128.349 119.551 128.512 119.286 128.786 119.085C129.06 118.885 129.368 118.811 129.71 118.864C130.053 118.917 130.318 119.079 130.505 119.351C130.693 119.623 130.761 119.924 130.71 120.253C130.657 120.596 130.5 120.868 130.239 121.071ZM135.806 135.309C134.317 135.078 133.155 134.393 132.319 133.252C131.499 132.1 131.2 130.805 131.422 129.369C131.644 127.933 132.319 126.796 133.447 125.958C134.59 125.11 135.906 124.801 137.395 125.031C138.871 125.259 140.019 125.949 140.839 127.101C141.674 128.243 141.981 129.531 141.759 130.967C141.537 132.404 140.854 133.546 139.711 134.395C138.583 135.232 137.282 135.537 135.806 135.309ZM133.719 132.315C134.258 133.1 135.036 133.571 136.05 133.728C137.065 133.884 137.941 133.669 138.68 133.082C139.418 132.494 139.865 131.7 140.02 130.699C140.175 129.697 139.989 128.805 139.462 128.022C138.936 127.239 138.165 126.769 137.15 126.612C136.136 126.455 135.253 126.669 134.501 127.255C133.763 127.842 133.316 128.637 133.161 129.638C133.006 130.639 133.192 131.532 133.719 132.315ZM147.144 123.685C146.885 123.874 146.585 123.942 146.242 123.889C145.9 123.836 145.627 123.68 145.425 123.419C145.224 123.145 145.15 122.837 145.203 122.494C145.254 122.165 145.417 121.9 145.69 121.699C145.964 121.499 146.273 121.425 146.615 121.478C146.958 121.531 147.223 121.693 147.41 121.965C147.597 122.237 147.666 122.538 147.615 122.867C147.562 123.21 147.405 123.482 147.144 123.685ZM143.435 136.286L144.963 126.403L146.663 126.666L145.135 136.549L143.435 136.286ZM148.357 137.047L149.885 127.165L151.585 127.427L151.349 128.949C152.199 127.907 153.335 127.496 154.758 127.716C155.878 127.889 156.725 128.391 157.298 129.221C157.871 130.052 158.064 131.074 157.876 132.286L156.935 138.374L155.255 138.114L156.156 132.283C156.285 131.453 156.175 130.768 155.827 130.229C155.48 129.676 154.951 129.344 154.24 129.234C153.423 129.108 152.688 129.325 152.035 129.885C151.394 130.447 150.988 131.288 150.815 132.408L150.057 137.31L148.357 137.047ZM164.175 139.695C162.739 139.473 161.622 138.801 160.824 137.68C160.039 136.56 159.761 135.262 159.989 133.786C160.219 132.297 160.863 131.142 161.921 130.321C162.995 129.489 164.289 129.189 165.804 129.424C167.333 129.66 168.448 130.386 169.151 131.601C169.853 132.816 170.031 134.199 169.683 135.751L161.638 134.507C161.526 135.407 161.739 136.209 162.278 136.913C162.819 137.604 163.537 138.018 164.433 138.157C165.777 138.365 166.818 137.959 167.556 136.94L169.295 137.209C168.902 138.092 168.251 138.774 167.34 139.254C166.429 139.734 165.374 139.881 164.175 139.695ZM167.359 131.931C166.892 131.373 166.277 131.035 165.513 130.917C164.748 130.799 164.027 130.923 163.35 131.291C162.686 131.66 162.211 132.288 161.925 133.175L168.092 134.129C168.072 133.208 167.828 132.476 167.359 131.931ZM175.483 141.444C174.113 141.232 173.037 140.553 172.256 139.407C171.489 138.263 171.215 136.979 171.435 135.556C171.655 134.133 172.304 132.992 173.381 132.133C174.471 131.277 175.702 130.954 177.072 131.166C177.797 131.278 178.443 131.547 179.012 131.972C179.595 132.386 180.02 132.87 180.285 133.424L181.284 126.96L182.984 127.223L180.692 142.047L178.992 141.784L179.227 140.262C178.807 140.71 178.256 141.05 177.572 141.281C176.904 141.502 176.208 141.556 175.483 141.444ZM175.981 139.922C176.956 140.073 177.813 139.855 178.552 139.267C179.29 138.68 179.738 137.879 179.895 136.864C180.051 135.85 179.867 134.951 179.34 134.168C178.814 133.385 178.063 132.918 177.088 132.767C176.099 132.614 175.236 132.832 174.498 133.419C173.759 134.007 173.312 134.808 173.155 135.822C172.998 136.837 173.183 137.736 173.709 138.519C174.236 139.302 174.993 139.769 175.981 139.922Z" fill="#FF1414"/>
<rect x="57.7009" y="152.374" width="306" height="74" rx="16" transform="rotate(8.79 57.7009 152.374)" fill="#005701"/>
<path d="M145.947 212.566L143.625 201.667L138.12 211.356L135.559 210.959L133.822 193.448L136.74 193.9L137.907 206.611L144.682 194.836L147.56 208.104L152.536 196.342L155.477 196.797L148.509 212.962L145.947 212.566ZM159.12 214.846C157.507 214.596 156.24 213.785 155.319 212.412C154.414 211.042 154.093 209.503 154.357 207.795C154.621 206.087 155.392 204.717 156.669 203.684C157.961 202.653 159.414 202.263 161.027 202.512C161.833 202.637 162.548 202.934 163.172 203.402C163.798 203.855 164.254 204.363 164.539 204.925L164.785 203.336L167.394 203.74L165.56 215.599L162.951 215.195L163.197 213.606C162.755 214.056 162.166 214.41 161.43 214.668C160.696 214.911 159.926 214.97 159.12 214.846ZM157.592 211.064C158.143 211.894 158.933 212.388 159.961 212.547C160.989 212.706 161.891 212.473 162.667 211.848C163.444 211.224 163.915 210.374 164.082 209.299C164.248 208.223 164.055 207.271 163.504 206.441C162.952 205.611 162.162 205.116 161.134 204.957C160.107 204.798 159.204 205.031 158.428 205.656C157.651 206.281 157.18 207.13 157.014 208.206C156.847 209.281 157.04 210.234 157.592 211.064ZM172.633 201.903C172.158 201.829 171.773 201.6 171.476 201.214C171.182 200.812 171.073 200.366 171.149 199.876C171.222 199.402 171.459 199.025 171.858 198.747C172.26 198.453 172.698 198.343 173.172 198.416C173.662 198.492 174.046 198.729 174.325 199.128C174.605 199.512 174.709 199.941 174.636 200.415C174.56 200.905 174.329 201.299 173.943 201.595C173.56 201.876 173.123 201.978 172.633 201.903ZM169.095 216.145L170.929 204.286L173.538 204.69L171.704 216.549L169.095 216.145ZM180.338 218.005C179.136 217.819 178.207 217.336 177.551 216.554C176.913 215.759 176.693 214.722 176.891 213.441L177.775 207.725L175.308 207.343L175.668 205.019L178.134 205.4L178.644 202.103L181.253 202.507L180.743 205.804L184.135 206.328L183.776 208.653L180.384 208.128L179.566 213.417C179.454 214.145 179.531 214.691 179.798 215.056C180.068 215.405 180.551 215.634 181.247 215.741C181.816 215.829 182.295 215.822 182.683 215.721L182.323 218.045C181.727 218.131 181.065 218.118 180.338 218.005ZM184.776 218.57L187.526 200.781L190.135 201.185L187.385 218.973L184.776 218.57ZM194.428 205.273C193.954 205.199 193.569 204.97 193.272 204.584C192.978 204.182 192.869 203.736 192.945 203.246C193.018 202.772 193.254 202.396 193.654 202.117C194.055 201.823 194.493 201.713 194.968 201.786C195.458 201.862 195.842 202.099 196.12 202.499C196.401 202.882 196.505 203.311 196.431 203.785C196.355 204.276 196.125 204.669 195.739 204.965C195.355 205.246 194.919 205.349 194.428 205.273ZM190.89 219.515L192.724 207.656L195.333 208.06L193.499 219.919L190.89 219.515ZM201.143 221.344C199.736 221.126 198.604 220.595 197.747 219.75C196.906 218.907 196.544 217.896 196.661 216.716L199.365 217.134C199.374 218.334 200.098 219.045 201.537 219.267C202.122 219.358 202.604 219.327 202.984 219.175C203.366 219.008 203.589 218.719 203.652 218.307C203.716 217.896 203.632 217.551 203.4 217.273C203.167 216.994 202.747 216.727 202.139 216.471L200.275 215.648C198.334 214.797 197.507 213.447 197.793 211.597C197.947 210.601 198.474 209.865 199.373 209.389C200.275 208.897 201.39 208.753 202.718 208.959C203.999 209.157 205 209.644 205.722 210.419C206.444 211.194 206.769 212.127 206.698 213.217L204.089 212.814C203.988 211.794 203.415 211.204 202.372 211.042C201.85 210.962 201.414 211.008 201.063 211.18C200.715 211.337 200.512 211.605 200.453 211.984C200.348 212.664 200.804 213.22 201.822 213.653L203.734 214.483C205.754 215.346 206.621 216.702 206.335 218.552C206.161 219.675 205.592 220.477 204.627 220.959C203.68 221.428 202.519 221.556 201.143 221.344ZM213.367 223.112C212.166 222.927 211.237 222.443 210.58 221.661C209.942 220.867 209.722 219.829 209.92 218.548L210.804 212.832L208.338 212.451L208.697 210.126L211.164 210.508L211.674 207.211L214.283 207.614L213.773 210.911L217.164 211.436L216.805 213.76L213.413 213.235L212.595 218.525C212.483 219.252 212.56 219.798 212.828 220.163C213.098 220.513 213.58 220.741 214.276 220.849C214.845 220.937 215.324 220.93 215.712 220.828L215.353 223.152C214.757 223.238 214.095 223.225 213.367 223.112ZM238.377 226.858L235.958 226.484L228.345 212.897L226.47 225.017L223.695 224.588L226.299 207.748L228.719 208.122L236.312 221.682L238.182 209.586L240.981 210.018L238.377 226.858ZM251.973 227.382C250.604 228.385 249.042 228.75 247.287 228.479C245.532 228.207 244.145 227.386 243.127 226.014C242.126 224.629 241.76 223.075 242.026 221.351C242.293 219.628 243.111 218.265 244.48 217.262C245.867 216.246 247.439 215.874 249.194 216.145C250.949 216.417 252.327 217.245 253.327 218.63C254.345 220.002 254.721 221.549 254.454 223.273C254.188 224.996 253.361 226.366 251.973 227.382ZM247.661 226.06C248.689 226.218 249.59 225.993 250.364 225.385C251.156 224.762 251.634 223.922 251.798 222.862C251.962 221.803 251.759 220.865 251.189 220.048C250.637 219.218 249.848 218.724 248.82 218.565C247.776 218.403 246.858 218.634 246.066 219.256C245.292 219.865 244.823 220.699 244.659 221.758C244.495 222.818 244.689 223.762 245.241 224.592C245.811 225.409 246.617 225.898 247.661 226.06ZM266.173 231.156L264.749 223.092L260.979 230.353L258.512 229.972L256.361 217.496L259.112 217.922L260.409 226.501L264.401 218.74L266.394 219.048L267.809 227.645L271.683 219.866L274.458 220.295L268.64 231.538L266.173 231.156Z" fill="white"/>
</svg>
