<svg width="422" height="318" viewBox="0 0 422 318" fill="none" xmlns="http://www.w3.org/2000/svg">
<rect x="40.5352" width="386" height="262" rx="16" transform="rotate(8.79 40.5352 0)" fill="white"/>
<path d="M76.9773 87.0714C74.5791 86.7005 72.6974 85.6945 71.3322 84.0533C69.971 82.3857 69.484 80.3001 69.8711 77.7965L73.5079 78.3589C73.2879 79.782 73.5627 80.9713 74.3324 81.9268C75.1284 82.8863 76.1721 83.466 77.4634 83.6657C78.8075 83.8735 79.9795 83.623 80.9796 82.9141C81.9796 82.2053 82.6182 80.9549 82.8953 79.1628L85.976 59.2396L89.6128 59.802L86.471 80.1205C86.0431 82.8876 84.9458 84.8361 83.179 85.9661C81.4163 87.0697 79.3491 87.4381 76.9773 87.0714ZM99.3828 90.455C96.4048 89.9945 94.0804 88.6232 92.4095 86.341C90.7691 84.0366 90.1709 81.4482 90.6151 78.5756C91.0593 75.7031 92.4093 73.4294 94.665 71.7544C96.9513 70.0572 99.5833 69.4388 102.561 69.8993C105.513 70.3557 107.809 71.7361 109.449 74.0405C111.12 76.3226 111.734 78.8999 111.289 81.7725C110.845 84.645 109.48 86.9299 107.194 88.6271C104.938 90.3021 102.334 90.9114 99.3828 90.455ZM95.2088 84.4668C96.2882 86.0368 97.8425 86.9788 99.8718 87.2925C101.901 87.6063 103.654 87.1758 105.131 86.001C106.608 84.8263 107.501 83.2374 107.811 81.2346C108.12 79.2317 107.749 77.4473 106.696 75.8813C105.643 74.3153 104.101 73.3754 102.072 73.0617C100.043 72.7479 98.2768 73.1764 96.7736 74.3471C95.2967 75.5218 94.4035 77.1107 94.0938 79.1135C93.7841 81.1164 94.1557 82.9008 95.2088 84.4668ZM121.071 67.0544C120.554 67.4331 119.953 67.5695 119.268 67.4636C118.582 67.3576 118.037 67.044 117.632 66.5226C117.231 65.9749 117.084 65.3585 117.189 64.6733C117.291 64.0144 117.616 63.4845 118.164 63.0835C118.712 62.6825 119.328 62.5349 120.013 62.6409C120.698 62.7468 121.228 63.0716 121.603 63.6153C121.978 64.1589 122.114 64.7602 122.012 65.419C121.906 66.1042 121.593 66.6493 121.071 67.0544ZM113.653 92.2568L116.709 72.4917L120.109 73.0174L117.052 92.7825L113.653 92.2568ZM122.509 93.6261L125.565 73.861L128.964 74.3867L128.494 77.4305C130.192 75.3456 132.465 74.5232 135.311 74.9633C137.551 75.3097 139.244 76.3135 140.39 77.9749C141.537 79.6362 141.922 81.6791 141.547 84.1037L139.665 96.279L136.305 95.7594L138.108 84.098C138.364 82.4377 138.145 81.068 137.448 79.9889C136.755 78.8834 135.698 78.2207 134.275 78.0006C132.641 77.748 131.17 78.1817 129.864 79.3019C128.584 80.4261 127.77 82.1083 127.424 84.3483L125.908 94.1518L122.509 93.6261ZM160.327 99.6764C158.509 99.3952 157.126 98.6552 156.178 97.4562C155.23 96.2573 154.909 94.6696 155.214 92.6931L156.883 81.9013L152.693 81.2534L153.176 78.1305L157.366 78.7784L158.216 73.2837L161.615 73.8094L160.766 79.3041L166.458 80.1843L165.975 83.3072L160.283 82.427L158.681 92.7839C158.49 94.0225 158.619 94.9329 159.068 95.5151C159.518 96.0974 160.309 96.4761 161.443 96.6513C162.444 96.8062 163.268 96.7987 163.915 96.6289L163.444 99.6727C162.447 99.8422 161.408 99.8435 160.327 99.6764ZM170.156 100.994L166.756 100.468L171.34 70.8205L174.74 71.3461L172.741 84.2725C174.44 82.1876 176.712 81.3652 179.558 81.8053C181.798 82.1517 183.492 83.1555 184.638 84.8169C185.784 86.4782 186.17 88.5211 185.795 90.9456L183.912 103.121L180.552 102.601L182.355 90.94C182.612 89.2797 182.392 87.91 181.696 86.8309C181.003 85.7254 179.945 85.0626 178.522 84.8426C176.888 84.5899 175.418 85.0237 174.111 86.1439C172.831 87.2681 172.018 88.9503 171.672 91.1903L170.156 100.994ZM197.405 105.612C194.532 105.168 192.298 103.824 190.702 101.58C189.133 99.341 188.576 96.7454 189.032 93.7938C189.493 90.8159 190.781 88.5056 192.897 86.863C195.043 85.1981 197.632 84.5999 200.662 85.0686C203.719 85.5413 205.95 86.9926 207.356 89.4225C208.761 91.8525 209.115 94.6192 208.42 97.7226L192.331 95.2348C192.106 97.035 192.533 98.639 193.611 100.047C194.692 101.428 196.129 102.258 197.921 102.535C200.609 102.95 202.691 102.139 204.166 100.101L207.645 100.638C206.859 102.406 205.555 103.769 203.734 104.729C201.913 105.688 199.803 105.983 197.405 105.612ZM203.773 90.0827C202.839 88.9669 201.608 88.2909 200.079 88.0545C198.551 87.8182 197.109 88.0674 195.754 88.8024C194.426 89.5414 193.476 90.7976 192.905 92.5712L205.238 94.4783C205.199 92.6374 204.71 91.1722 203.773 90.0827ZM226.479 109.905C224.66 109.624 223.277 108.884 222.329 107.685C221.381 106.486 221.06 104.899 221.366 102.922L223.034 92.1302L218.844 91.4823L219.327 88.3594L223.517 89.0074L224.367 83.5127L227.766 84.0383L226.917 89.533L232.609 90.4132L232.126 93.5361L226.434 92.6559L224.832 103.013C224.641 104.251 224.77 105.162 225.22 105.744C225.669 106.326 226.461 106.705 227.594 106.88C228.595 107.035 229.419 107.028 230.066 106.858L229.596 109.902C228.598 110.071 227.559 110.072 226.479 109.905ZM232.907 110.697L235.964 90.932L239.363 91.4576L238.77 95.2921C239.327 94.1368 240.189 93.2718 241.357 92.6969C242.552 92.1261 243.742 91.9324 244.928 92.1157C245.508 92.2054 246.014 92.3376 246.445 92.5122L245.901 96.0304C245.46 95.7463 244.857 95.5451 244.092 95.4269C242.722 95.215 241.418 95.6205 240.18 96.6434C238.943 97.6663 238.157 99.2583 237.823 101.419L236.307 111.223L232.907 110.697ZM253.814 87.5803C253.297 87.9591 252.695 88.0955 252.01 87.9895C251.325 87.8836 250.78 87.5699 250.375 87.0486C249.974 86.5008 249.826 85.8844 249.932 85.1992C250.034 84.5404 250.359 84.0104 250.907 83.6094C251.454 83.2084 252.071 83.0609 252.756 83.1668C253.441 83.2728 253.971 83.5976 254.346 84.1412C254.72 84.6849 254.857 85.2861 254.755 85.9449C254.649 86.6301 254.335 87.1753 253.814 87.5803ZM246.396 112.783L249.452 93.0176L252.851 93.5433L249.795 113.308L246.396 112.783ZM265.547 116.149C264.098 115.925 262.789 115.399 261.622 114.571C260.485 113.72 259.652 112.741 259.122 111.634L258.651 114.678L255.251 114.152L259.836 84.5044L263.235 85.0301L261.236 97.9565C262.076 97.061 263.165 96.3928 264.501 95.9518C265.868 95.4886 267.276 95.369 268.726 95.5931C271.466 96.0169 273.604 97.3729 275.139 99.661C276.701 101.953 277.261 104.522 276.821 107.369C276.381 110.215 275.071 112.495 272.89 114.208C270.735 115.926 268.288 116.573 265.547 116.149ZM261.011 110.145C262.064 111.711 263.566 112.645 265.516 112.947C267.466 113.248 269.18 112.811 270.657 111.637C272.133 110.462 273.029 108.86 273.343 106.831C273.656 104.801 273.287 103.004 272.234 101.438C271.181 99.8719 269.679 98.9381 267.729 98.6366C265.779 98.335 264.065 98.7716 262.588 99.9464C261.111 101.121 260.216 102.723 259.902 104.752C259.588 106.782 259.958 108.579 261.011 110.145ZM287.521 119.547C284.649 119.103 282.414 117.759 280.819 115.515C279.249 113.276 278.692 110.68 279.149 107.728C279.609 104.751 280.897 102.44 283.013 100.798C285.16 99.1327 287.748 98.5346 290.779 99.0032C293.836 99.4759 296.067 100.927 297.472 103.357C298.877 105.787 299.232 108.554 298.536 111.657L282.447 109.169C282.223 110.97 282.65 112.574 283.727 113.982C284.809 115.363 286.245 116.192 288.038 116.469C290.726 116.885 292.807 116.074 294.283 114.035L297.761 114.573C296.976 116.34 295.672 117.704 293.85 118.664C292.029 119.623 289.919 119.918 287.521 119.547ZM293.889 104.017C292.955 102.902 291.724 102.226 290.196 101.989C288.667 101.753 287.225 102.002 285.871 102.737C284.542 103.476 283.592 104.732 283.021 106.506L295.355 108.413C295.315 106.572 294.827 105.107 293.889 104.017Z" fill="#050401"/>
<path d="M72.6036 123.693L72.3499 125.333L63.2579 123.927L63.3619 123.255C63.4372 122.768 63.581 122.318 63.7932 121.905C64.0206 121.482 64.25 121.133 64.4813 120.858C64.7127 120.584 65.0545 120.293 65.5068 119.985C65.9612 119.664 66.3137 119.435 66.5642 119.298C66.8167 119.148 67.235 118.93 67.8191 118.642C68.4053 118.342 68.7932 118.145 68.9828 118.053C70.0243 117.513 70.7586 117.039 71.1857 116.633C71.628 116.216 71.9082 115.625 72.0264 114.861C72.1405 114.123 71.994 113.5 71.5869 112.992C71.1818 112.47 70.5971 112.151 69.8329 112.032C69.0291 111.908 68.3062 112.046 67.6642 112.446C67.0222 112.846 66.634 113.481 66.4995 114.35L64.7602 114.081C64.964 112.764 65.5638 111.764 66.5598 111.081C67.569 110.401 68.739 110.163 70.0698 110.369C71.3085 110.561 72.2812 111.075 72.9882 111.913C73.7083 112.753 73.9664 113.832 73.7627 115.15C73.6078 116.151 73.2316 116.97 72.6341 117.606C72.0385 118.229 71.0816 118.877 69.7633 119.55C69.5148 119.674 69.1639 119.849 68.7106 120.075C68.2594 120.289 67.9085 120.464 67.658 120.601C67.4075 120.737 67.1245 120.909 66.8091 121.117C66.5089 121.313 66.2583 121.538 66.0574 121.79C65.8717 122.031 65.7215 122.305 65.6067 122.611L72.6036 123.693ZM80.8478 126.647L81.4377 122.833L73.9665 121.677L74.1773 120.314L83.2352 112.648L84.7176 112.877L83.385 121.494L85.322 121.794L85.0744 123.395L83.1375 123.095L82.5476 126.91L80.8478 126.647ZM76.4277 120.419L81.6852 121.232L82.6204 115.184L76.4277 120.419ZM91.3557 128.474C89.8931 128.248 88.776 127.576 88.0044 126.459C87.2349 125.328 86.9703 123.985 87.2107 122.43L87.8159 118.517C88.0563 116.962 88.7131 115.768 89.7862 114.936C90.8746 114.092 92.1435 113.782 93.5929 114.006C95.0424 114.231 96.1585 114.909 96.9412 116.042C97.7239 117.175 97.9961 118.512 97.7577 120.054L97.1526 123.967C96.9122 125.522 96.2478 126.721 95.1594 127.565C94.0731 128.395 92.8052 128.699 91.3557 128.474ZM91.6125 126.814C92.5876 126.965 93.4281 126.764 94.134 126.212C94.84 125.661 95.2796 124.825 95.4528 123.705L96.0579 119.791C96.2311 118.671 96.0646 117.741 95.5583 117.002C95.052 116.263 94.3113 115.817 93.3362 115.667C92.3743 115.518 91.5404 115.72 90.8344 116.271C90.1284 116.823 89.6889 117.659 89.5157 118.779L88.9105 122.693C88.7373 123.813 88.9039 124.743 89.4102 125.482C89.9165 126.221 90.6506 126.665 91.6125 126.814ZM103.67 130.379C102.208 130.153 101.091 129.481 100.319 128.363C99.5495 127.232 99.2849 125.889 99.5253 124.334L100.13 120.421C100.371 118.866 101.028 117.672 102.101 116.84C103.189 115.996 104.458 115.686 105.908 115.911C107.357 116.135 108.473 116.813 109.256 117.946C110.039 119.079 110.311 120.416 110.072 121.958L109.467 125.872C109.227 127.426 108.562 128.626 107.474 129.469C106.388 130.3 105.12 130.603 103.67 130.379ZM103.927 128.718C104.902 128.869 105.743 128.669 106.449 128.117C107.155 127.565 107.594 126.729 107.767 125.609L108.373 121.695C108.546 120.575 108.379 119.646 107.873 118.906C107.367 118.167 106.626 117.722 105.651 117.571C104.689 117.422 103.855 117.624 103.149 118.176C102.443 118.728 102.003 119.564 101.83 120.684L101.225 124.597C101.052 125.717 101.218 126.647 101.725 127.386C102.231 128.126 102.965 128.57 103.927 128.718ZM111.387 126.29L111.622 124.768L115.041 125.297L115.567 121.897L117.109 122.135L116.583 125.535L119.983 126.061L119.747 127.583L116.348 127.057L115.822 130.457L114.28 130.218L114.806 126.819L111.387 126.29ZM129.506 124.052L127.776 135.239C127.623 136.228 127.23 136.936 126.597 137.364C125.964 137.793 125.207 137.938 124.324 137.802C124.021 137.755 123.754 137.694 123.522 137.617L123.758 136.095C123.965 136.154 124.154 136.197 124.325 136.224C125.339 136.381 125.933 135.899 126.107 134.779L127.806 123.79L129.506 124.052ZM129.987 121.071C129.728 121.26 129.428 121.328 129.085 121.275C128.742 121.222 128.47 121.066 128.267 120.805C128.067 120.531 127.993 120.223 128.046 119.88C128.097 119.551 128.259 119.286 128.533 119.085C128.807 118.885 129.115 118.811 129.458 118.864C129.801 118.917 130.065 119.079 130.253 119.351C130.44 119.623 130.508 119.924 130.457 120.253C130.404 120.596 130.248 120.868 129.987 121.071ZM135.553 135.309C134.064 135.078 132.902 134.393 132.067 133.252C131.246 132.1 130.947 130.805 131.169 129.369C131.392 127.933 132.067 126.796 133.194 125.958C134.338 125.11 135.654 124.801 137.143 125.031C138.618 125.259 139.766 125.949 140.587 127.101C141.422 128.243 141.729 129.531 141.507 130.967C141.285 132.404 140.602 133.546 139.459 134.395C138.331 135.232 137.029 135.537 135.553 135.309ZM133.466 132.315C134.006 133.1 134.783 133.571 135.798 133.728C136.812 133.884 137.689 133.669 138.427 133.082C139.166 132.494 139.612 131.7 139.767 130.699C139.922 129.697 139.736 128.805 139.21 128.022C138.683 127.239 137.913 126.769 136.898 126.612C135.883 126.455 135 126.669 134.249 127.255C133.51 127.842 133.064 128.637 132.909 129.638C132.754 130.639 132.94 131.532 133.466 132.315ZM146.892 123.685C146.633 123.874 146.332 123.942 145.99 123.889C145.647 123.836 145.375 123.68 145.172 123.419C144.972 123.145 144.898 122.837 144.951 122.494C145.002 122.165 145.164 121.9 145.438 121.699C145.712 121.499 146.02 121.425 146.363 121.478C146.705 121.531 146.97 121.693 147.158 121.965C147.345 122.237 147.413 122.538 147.362 122.867C147.309 123.21 147.152 123.482 146.892 123.685ZM143.182 136.286L144.711 126.403L146.41 126.666L144.882 136.549L143.182 136.286ZM148.104 137.047L149.633 127.165L151.332 127.427L151.097 128.949C151.946 127.907 153.082 127.496 154.506 127.716C155.626 127.889 156.472 128.391 157.045 129.221C157.618 130.052 157.811 131.074 157.624 132.286L156.682 138.374L155.002 138.114L155.904 132.283C156.032 131.453 155.922 130.768 155.574 130.229C155.228 129.676 154.699 129.344 153.987 129.234C153.17 129.108 152.435 129.325 151.782 129.885C151.142 130.447 150.735 131.288 150.562 132.408L149.804 137.31L148.104 137.047ZM163.923 139.695C162.487 139.473 161.369 138.801 160.572 137.68C159.787 136.56 159.508 135.262 159.737 133.786C159.967 132.297 160.611 131.142 161.669 130.321C162.742 129.489 164.036 129.189 165.552 129.424C167.08 129.66 168.196 130.386 168.898 131.601C169.601 132.816 169.778 134.199 169.43 135.751L161.386 134.507C161.274 135.407 161.487 136.209 162.026 136.913C162.567 137.604 163.285 138.018 164.181 138.157C165.525 138.365 166.566 137.959 167.304 136.94L169.043 137.209C168.65 138.092 167.998 138.774 167.088 139.254C166.177 139.734 165.122 139.881 163.923 139.695ZM167.107 131.931C166.64 131.373 166.024 131.035 165.26 130.917C164.496 130.799 163.775 130.923 163.098 131.291C162.433 131.66 161.958 132.288 161.673 133.175L167.84 134.129C167.82 133.208 167.576 132.476 167.107 131.931ZM175.231 141.444C173.86 141.232 172.785 140.553 172.004 139.407C171.236 138.263 170.963 136.979 171.183 135.556C171.403 134.133 172.051 132.992 173.129 132.133C174.219 131.277 175.449 130.954 176.82 131.166C177.544 131.278 178.191 131.547 178.759 131.972C179.343 132.386 179.767 132.87 180.033 133.424L181.032 126.96L182.732 127.223L180.44 142.047L178.74 141.784L178.975 140.262C178.555 140.71 178.003 141.05 177.32 141.281C176.652 141.502 175.955 141.556 175.231 141.444ZM175.729 139.922C176.704 140.073 177.561 139.855 178.299 139.267C179.038 138.68 179.485 137.879 179.642 136.864C179.799 135.85 179.614 134.951 179.088 134.168C178.561 133.385 177.81 132.918 176.835 132.767C175.847 132.614 174.984 132.832 174.245 133.419C173.507 134.007 173.059 134.808 172.902 135.822C172.745 136.837 172.93 137.736 173.457 138.519C173.983 139.302 174.741 139.769 175.729 139.922Z" fill="#FF1414"/>
<rect x="57.4492" y="152.374" width="306" height="74" rx="16" transform="rotate(8.79 57.4492 152.374)" fill="#FF3EC2"/>
<path d="M145.696 212.566L143.374 201.667L137.869 211.356L135.307 210.959L133.57 193.448L136.488 193.9L137.655 206.611L144.43 194.836L147.308 208.104L152.284 196.342L155.225 196.797L148.257 212.962L145.696 212.566ZM158.868 214.846C157.255 214.596 155.988 213.785 155.067 212.412C154.162 211.042 153.841 209.503 154.105 207.795C154.37 206.087 155.14 204.717 156.417 203.684C157.709 202.653 159.162 202.263 160.775 202.512C161.581 202.637 162.297 202.934 162.92 203.402C163.546 203.855 164.002 204.363 164.288 204.925L164.533 203.336L167.142 203.74L165.309 215.599L162.7 215.195L162.945 213.606C162.503 214.056 161.914 214.41 161.178 214.668C160.444 214.911 159.674 214.97 158.868 214.846ZM157.34 211.064C157.892 211.894 158.681 212.388 159.709 212.547C160.737 212.706 161.639 212.473 162.416 211.848C163.192 211.224 163.664 210.374 163.83 209.299C163.996 208.223 163.803 207.271 163.252 206.441C162.7 205.611 161.91 205.116 160.883 204.957C159.855 204.798 158.953 205.031 158.176 205.656C157.4 206.281 156.928 207.13 156.762 208.206C156.596 209.281 156.788 210.234 157.34 211.064ZM172.381 201.903C171.907 201.829 171.521 201.6 171.225 201.214C170.931 200.812 170.822 200.366 170.897 199.876C170.971 199.402 171.207 199.025 171.606 198.747C172.008 198.453 172.446 198.343 172.92 198.416C173.41 198.492 173.795 198.729 174.073 199.128C174.354 199.512 174.457 199.941 174.384 200.415C174.308 200.905 174.077 201.299 173.691 201.595C173.308 201.876 172.871 201.978 172.381 201.903ZM168.843 216.145L170.677 204.286L173.286 204.69L171.452 216.549L168.843 216.145ZM180.086 218.005C178.885 217.819 177.956 217.336 177.299 216.554C176.661 215.759 176.441 214.722 176.639 213.441L177.523 207.725L175.057 207.343L175.416 205.019L177.883 205.4L178.392 202.103L181.001 202.507L180.492 205.804L183.883 206.328L183.524 208.653L180.132 208.128L179.314 213.417C179.202 214.145 179.279 214.691 179.547 215.056C179.817 215.405 180.299 215.634 180.995 215.741C181.564 215.829 182.043 215.822 182.431 215.721L182.072 218.045C181.476 218.131 180.814 218.118 180.086 218.005ZM184.524 218.57L187.275 200.781L189.884 201.185L187.133 218.973L184.524 218.57ZM194.177 205.273C193.702 205.199 193.317 204.97 193.02 204.584C192.726 204.182 192.617 203.736 192.693 203.246C192.766 202.772 193.003 202.396 193.402 202.117C193.804 201.823 194.242 201.713 194.716 201.786C195.206 201.862 195.59 202.099 195.869 202.499C196.149 202.882 196.253 203.311 196.18 203.785C196.104 204.276 195.873 204.669 195.487 204.965C195.104 205.246 194.667 205.349 194.177 205.273ZM190.639 219.515L192.473 207.656L195.082 208.06L193.248 219.919L190.639 219.515ZM200.891 221.344C199.484 221.126 198.352 220.595 197.495 219.75C196.654 218.907 196.292 217.896 196.41 216.716L199.114 217.134C199.122 218.334 199.846 219.045 201.285 219.267C201.87 219.358 202.353 219.327 202.732 219.175C203.114 219.008 203.337 218.719 203.401 218.307C203.464 217.896 203.38 217.551 203.148 217.273C202.916 216.994 202.496 216.727 201.888 216.471L200.023 215.648C198.083 214.797 197.255 213.447 197.541 211.597C197.695 210.601 198.222 209.865 199.121 209.389C200.023 208.897 201.138 208.753 202.466 208.959C203.747 209.157 204.749 209.644 205.47 210.419C206.192 211.194 206.518 212.127 206.446 213.217L203.837 212.814C203.736 211.794 203.163 211.204 202.12 211.042C201.598 210.962 201.162 211.008 200.811 211.18C200.463 211.337 200.26 211.605 200.201 211.984C200.096 212.664 200.553 213.22 201.57 213.653L203.482 214.483C205.502 215.346 206.369 216.702 206.083 218.552C205.909 219.675 205.34 220.477 204.375 220.959C203.428 221.428 202.267 221.556 200.891 221.344ZM213.116 223.112C211.914 222.927 210.985 222.443 210.329 221.661C209.691 220.867 209.471 219.829 209.669 218.548L210.553 212.832L208.086 212.451L208.445 210.126L210.912 210.508L211.422 207.211L214.031 207.614L213.521 210.911L216.913 211.436L216.553 213.76L213.162 213.235L212.344 218.525C212.231 219.252 212.309 219.798 212.576 220.163C212.846 220.513 213.329 220.741 214.024 220.849C214.594 220.937 215.072 220.93 215.46 220.828L215.101 223.152C214.505 223.238 213.843 223.225 213.116 223.112ZM238.125 226.858L235.706 226.484L228.093 212.897L226.219 225.017L223.444 224.588L226.048 207.748L228.467 208.122L236.06 221.682L237.93 209.586L240.729 210.018L238.125 226.858ZM251.722 227.382C250.352 228.385 248.79 228.75 247.035 228.479C245.28 228.207 243.893 227.386 242.875 226.014C241.875 224.629 241.508 223.075 241.774 221.351C242.041 219.628 242.859 218.265 244.228 217.262C245.616 216.246 247.187 215.874 248.942 216.145C250.697 216.417 252.075 217.245 253.075 218.63C254.093 220.002 254.469 221.549 254.203 223.273C253.936 224.996 253.109 226.366 251.722 227.382ZM247.409 226.06C248.437 226.218 249.338 225.993 250.112 225.385C250.904 224.762 251.383 223.922 251.546 222.862C251.71 221.803 251.507 220.865 250.937 220.048C250.386 219.218 249.596 218.724 248.568 218.565C247.525 218.403 246.607 218.634 245.814 219.256C245.04 219.865 244.571 220.699 244.407 221.758C244.243 222.818 244.437 223.762 244.989 224.592C245.559 225.409 246.366 225.898 247.409 226.06ZM265.921 231.156L264.497 223.092L260.727 230.353L258.26 229.972L256.109 217.496L258.861 217.922L260.157 226.501L264.15 218.74L266.142 219.048L267.557 227.645L271.431 219.866L274.206 220.295L268.388 231.538L265.921 231.156Z" fill="white"/>
</svg>
